<svg width="319" height="175" viewBox="0 0 319 175" fill="none" xmlns="http://www.w3.org/2000/svg">
<path d="M161.997 2.60512C160.716 2.19733 159.725 2.10878 158.877 2.0702C156.92 10.4225 155.498 16.8333 154.62 20.3044C154.263 21.7149 153.879 22.9406 153.474 24.1665C157.218 24.2235 160.778 24.7732 164.133 25.7561C166.195 22.5659 169.88 19.1627 176.501 15.274C176.684 15.1243 176.763 15.0337 176.752 15.0805C176.737 15.1414 176.812 14.9267 176.564 14.234C176.068 12.8494 174.088 10.1212 171.288 7.81878C168.487 5.51771 164.942 3.54222 161.997 2.60512ZM50.501 0.479341C49.8496 0.373758 49.3285 0.431678 48.5552 0.835462C47.5154 1.37935 46.0299 2.69679 44.5745 4.87846C41.6641 9.24049 39.0715 16.7579 37.9733 24.9596C36.8756 33.1598 37.1944 42.0703 39.1719 49.379C39.948 52.2486 40.9672 54.8051 42.2019 57.023C53.6756 57.2428 65.5499 58.0528 76.1207 59.5908C62.8058 44.1567 57.1021 30.987 54.5812 20.6438C52.8551 13.5596 52.4646 7.8311 51.8484 4.31598C51.335 1.39005 51.0918 0.886509 50.501 0.479341ZM162.204 37.8194C158.12 36.493 153.415 36.2296 147.838 37.0806C145.942 37.37 144.399 38.3955 142.508 41.1989C140.617 44.0008 138.834 48.4149 137.412 53.6448C134.568 64.1012 133.042 77.6329 131.286 89.038L129.363 101.539L120.574 92.4319C110.538 82.0336 99.5343 77.4991 86.4794 74.2948C72.2811 70.8094 49.6601 69.2358 30.7194 69.53C21.2498 69.6773 12.6285 70.282 6.50834 71.2139C3.83787 71.6208 1.92984 72.1025 0.488821 72.5396C1.02051 74.8956 2.33188 76.2245 4.7941 77.7454C8.21233 79.858 14.2097 81.4449 21.4235 82.3467C35.8502 84.1507 54.5687 83.4666 69.6513 87.0442C93.6378 92.7318 117.452 109.999 131.67 115.408C136.749 117.34 143.041 119.957 147.955 120.906C150.413 121.381 152.44 121.376 153.481 121.123C154.352 120.914 154.545 120.772 154.836 120.277C154.945 119.336 155.077 117.813 155.204 115.792C155.477 111.469 155.752 105.307 156.064 98.7433C156.689 85.6155 157.184 71.7285 158.876 64.4247L171.22 65.1301C174.069 89.9797 172.629 106.44 172.189 116.329C171.97 121.273 172.194 124.483 172.554 125.569C172.912 126.656 172.401 126.341 174.462 127.006L174.787 127.111L175.094 127.248C180.01 129.444 194.249 131.822 206.331 133.024C218.413 134.226 228.824 134.673 228.824 134.673L229.185 134.689L229.54 134.745C253.509 138.555 271.302 154.662 284.54 164.958C291.158 170.107 296.812 173.576 299.747 174.141C301.216 174.423 301.81 174.316 302.76 173.77C303.249 173.488 303.88 172.962 304.597 172.139C294.715 158.828 269.009 127.163 247.159 117.398C239.721 114.074 230.839 111.118 222.558 110.049C214.277 108.982 206.852 109.85 201.573 113.147L192.764 118.649L191.989 108.296C190.283 85.5122 185.936 65.686 178.652 53.0765C174.099 45.1948 169.012 40.0308 162.204 37.8194ZM318.017 102.409C302.917 105.755 282.981 108.646 261.483 110.88C267.988 114.884 274.297 119.858 280.221 125.231C303.907 125.225 312.797 119.535 316.097 114.386C318.339 110.888 318.51 106.552 318.017 102.409Z" fill="#795548"/>
</svg>
