<svg width="229" height="308" viewBox="0 0 229 308" fill="none" xmlns="http://www.w3.org/2000/svg">
<path d="M117.694 16.0746L121.202 4.11517C121.379 3.42543 121.69 2.77748 122.119 2.20836C122.547 1.63923 123.084 1.1601 123.698 0.798356C124.313 0.436615 124.993 0.199356 125.699 0.100144C126.406 0.000932667 127.126 0.0417147 127.817 0.220159L187.254 17.6511C187.932 17.8743 188.56 18.2287 189.101 18.6939C189.642 19.1591 190.087 19.7261 190.408 20.3623C190.73 20.9986 190.923 21.6918 190.976 22.4021C191.029 23.1125 190.942 23.8261 190.718 24.5022L187.211 36.4617L221.969 46.6552C224.257 47.5362 226.135 49.2346 227.239 51.4197C228.342 53.6049 228.592 56.1204 227.939 58.4765L156.776 301.132C155.979 303.278 154.394 305.041 152.342 306.064C150.29 307.088 147.924 307.294 145.723 306.643L6.68953 265.869C4.47129 265.223 2.58327 263.755 1.41199 261.767C0.240708 259.779 -0.125268 257.42 0.388989 255.174L71.5522 12.5189C72.2922 10.2047 73.8642 8.24652 75.9657 7.02111C78.0672 5.7957 80.5498 5.38965 82.9359 5.88107L117.694 16.0746ZM78.3233 206.313C76.3658 208.423 75.3293 211.223 75.4419 214.097C75.5545 216.972 76.807 219.686 78.9238 221.642C81.0407 223.598 83.8485 224.637 86.7295 224.528C89.6106 224.42 92.3289 223.175 94.2865 221.065L169.562 140.084L114.882 133.46L144.948 104.631C145.98 103.648 146.807 102.472 147.383 101.169C147.958 99.8667 148.271 98.4634 148.303 97.0395C148.335 95.6156 148.086 94.199 147.569 92.8705C147.053 91.542 146.279 90.3276 145.293 89.2967C144.306 88.2658 143.126 87.4386 141.82 86.8623C140.513 86.286 139.106 85.9718 137.679 85.9378C136.252 85.9038 134.833 86.1506 133.502 86.6641C132.171 87.1776 130.955 87.9477 129.923 88.9305L66.6799 149.158L124.65 156.465L78.3233 206.313Z" fill="#6A0DAD"/>
</svg>
