<svg width="675" height="675" viewBox="0 0 675 675" fill="none" xmlns="http://www.w3.org/2000/svg">
<g clip-path="url(#clip0_34_256)" filter="url(#filter0_i_34_256)">
<path d="M516.459 119.306C508.444 123.525 414.366 131.962 393.272 130.275C383.147 129.009 380.194 130.697 379.35 138.291C377.662 148.837 386.1 151.369 394.537 142.931C400.022 137.447 398.756 137.447 468.366 133.228C508.444 130.697 517.725 131.119 517.725 135.759C517.725 140.822 518.569 140.822 521.522 136.181C523.631 132.384 525.741 136.181 527.85 148.837C529.537 158.541 540.928 186.384 553.584 210.431C566.241 234.478 575.522 256.416 574.256 259.369C572.991 262.322 558.647 267.384 541.772 270.337C524.897 273.291 508.444 277.087 505.069 279.197C501.694 280.884 497.053 279.619 493.256 275.4C489.459 270.337 488.616 269.916 490.725 274.556C500.006 293.962 517.725 302.822 517.725 288.056C517.725 282.15 518.569 282.15 521.522 286.791C524.897 291.853 529.116 292.275 545.991 288.478C558.225 285.525 568.772 285.103 573.412 287.634C578.053 290.166 581.428 289.744 583.537 286.369C585.647 283.416 584.803 282.994 581.006 285.103C577.209 287.634 576.366 286.791 578.897 283.416C580.584 280.041 586.069 279.197 592.397 280.884C599.147 282.572 601.678 281.728 599.991 278.775C598.303 276.244 601.678 274.556 607.584 274.556C618.553 274.556 621.506 264.009 611.803 260.212C608.428 258.947 607.162 255.994 608.428 253.462C609.694 251.353 608.85 249.244 606.319 249.244C603.787 249.244 602.944 247.134 604.209 245.025C605.475 242.494 604.631 240.806 601.678 240.806C598.725 240.806 597.881 239.541 599.147 237.853C600.834 236.587 599.147 233.212 595.35 230.681C591.975 228.15 588.6 223.087 588.178 219.291C587.334 215.916 578.053 197.353 566.662 178.369C552.319 153.9 546.834 140.4 548.522 132.806C551.053 118.041 532.912 110.025 516.459 119.306Z" fill="black"/>
<path d="M422.803 188.916C424.491 193.134 427.022 199.884 427.866 203.681C429.131 207.9 431.662 211.275 433.772 211.275C438.834 211.275 438.412 204.103 433.35 200.728C431.241 199.463 429.131 194.4 429.131 189.759C429.131 185.541 427.022 181.744 424.491 181.744C421.537 181.744 421.116 184.697 422.803 188.916Z" fill="black"/>
<path d="M408.881 193.134C402.553 204.525 402.131 216.759 408.459 213.384C410.991 211.697 411.834 207.9 410.569 204.947C409.303 201.572 410.569 198.619 413.1 197.775C415.631 196.931 416.897 193.134 415.631 190.181C414.366 185.541 412.256 185.962 408.881 193.134Z" fill="black"/>
<path d="M77.2875 212.541C65.8969 249.244 62.1 278.775 69.2719 278.775C72.6469 278.775 73.9125 280.884 72.225 283.416C70.1156 286.791 72.6469 287.634 80.2406 286.369C86.9906 285.103 90.3656 285.947 88.6781 288.478C86.9906 291.009 90.3656 291.853 97.5375 290.588C103.444 289.322 109.772 290.166 111.459 292.697C112.725 295.228 111.881 295.65 109.35 293.963C106.397 292.275 104.288 292.275 104.288 294.384C104.288 301.134 121.163 325.181 125.803 325.181C127.913 325.181 126.225 319.697 121.584 313.369L113.147 301.134L135.928 303.244L158.288 304.931L160.819 284.681C162.506 273.291 166.303 248.822 169.678 230.681C173.053 212.119 174.741 195.666 173.475 193.556C172.209 191.869 151.538 190.181 127.913 190.181H84.4594L77.2875 212.541Z" fill="black"/>
<path d="M197.944 197.353C198.788 201.572 202.584 204.525 206.381 203.681C212.709 202.838 212.709 203.681 206.803 215.916C203.428 223.088 199.209 245.025 197.944 264.431L195.834 299.869H207.225C219.881 299.869 221.991 307.884 209.756 311.259C197.1 314.634 199.631 320.963 213.975 320.963C221.147 320.963 226.631 319.275 226.631 317.166C226.631 315.056 230.85 312.525 235.913 311.681C241.397 310.838 247.725 305.353 250.678 299.447C254.053 292.697 262.069 286.791 273.038 282.994L289.913 277.509V239.963V202.838H258.694C235.069 202.838 227.053 201.15 224.944 196.509C223.678 192.713 217.35 190.181 209.756 190.181C199.209 190.181 196.678 191.869 197.944 197.353Z" fill="black"/>
<path d="M547.256 252.619C547.256 258.947 548.944 261.056 554.006 258.947C557.803 257.681 559.069 255.15 556.959 253.884C555.272 252.619 552.319 249.666 550.631 247.556C548.522 245.447 547.256 247.556 547.256 252.619Z" fill="black"/>
<path d="M366.694 269.916C362.053 272.447 361.209 285.103 362.475 323.494L363.741 373.697L347.709 372.009C338.85 371.166 325.772 373.275 318.178 376.228C300.881 382.978 280.209 397.322 283.163 400.275C284.428 401.541 279.788 406.181 272.616 410.4C264.178 415.463 256.163 426.009 250.678 439.509C242.241 459.759 240.553 460.603 214.819 468.619C200.053 473.259 186.975 477.056 186.131 477.056C185.288 477.056 184.444 468.197 184.444 456.806C184.444 437.4 184.022 436.978 171.788 436.556C165.038 436.134 159.131 437.4 159.131 439.509C159.131 441.619 157.444 443.306 154.913 443.306C146.897 443.306 155.756 431.494 165.881 428.963C184.866 423.9 176.428 417.994 151.538 418.838L127.491 420.103L128.756 398.166L130.444 376.65L105.553 369.478C92.0531 365.681 72.6469 357.666 62.5219 352.181C45.6469 342.9 44.3813 342.9 51.5531 350.494C59.1469 358.931 54.9281 362.728 46.9125 355.134C44.8031 352.603 42.6938 357.666 42.2719 369.9C42.2719 380.025 43.5375 388.462 46.0688 388.462C48.1781 388.462 48.6 385.931 46.9125 382.978C45.225 380.447 49.0219 382.556 54.9281 388.041C61.2563 393.947 66.3188 399.431 66.3188 400.275C66.3188 401.541 62.5219 399.009 57.8813 394.791C45.225 383.4 46.4906 396.9 59.9906 411.244C65.475 417.15 68.4281 422.213 66.3188 422.213C63.7875 422.213 57.8813 415.463 52.8188 407.447C43.1156 393.103 35.5219 387.619 38.475 397.744C39.7406 400.697 41.4281 408.712 42.6938 415.041C44.3813 422.213 47.3344 425.588 50.2875 423.9C53.2406 422.213 53.6625 422.634 51.975 425.588C50.2875 428.119 50.7094 434.025 53.2406 438.244C57.4594 446.259 53.6625 457.228 46.9125 455.963C36.7875 454.275 43.1156 464.822 62.1 482.541C90.7875 509.119 102.6 516.291 114.834 514.181C120.319 512.916 124.116 513.338 123.272 515.025C122.428 516.713 128.334 520.931 136.35 524.728C151.959 532.322 192.881 534.431 192.881 527.681C192.881 525.572 195.413 524.728 198.788 525.994C205.959 528.947 239.288 520.088 239.288 515.447C239.288 507.853 255.319 512.916 272.616 526.416C294.975 543.291 310.163 544.134 334.631 529.791C352.772 519.244 374.288 485.072 374.288 467.353C374.288 461.869 376.397 460.181 380.616 461.869C386.1 463.556 386.944 458.072 386.944 424.322C386.944 388.884 387.788 384.244 394.538 384.666C398.756 384.666 399.6 385.931 396.647 387.197C388.209 390.15 389.897 408.712 398.756 410.822C405.506 412.509 405.506 412.931 398.756 413.353C393.694 413.775 391.163 417.15 391.163 423.9C391.163 433.181 392.85 434.025 408.459 433.603L425.334 432.759L424.069 400.275L422.803 368.212L437.569 363.994C445.584 361.462 458.663 360.619 466.256 361.884L479.756 363.994V390.994C479.756 412.931 478.491 417.994 473.006 417.994C468.366 417.994 467.1 420.103 468.788 424.744C470.053 428.541 471.319 431.916 471.319 433.181C471.319 437.822 497.897 447.525 510.975 447.525C521.944 447.525 527.85 444.572 535.866 434.869C541.772 428.119 547.256 420.525 548.1 417.994C548.944 415.041 553.584 415.041 563.288 418.416C589.444 427.697 606.741 410.822 612.647 370.322C615.178 354.712 617.288 350.494 623.616 350.494C629.522 350.494 631.631 347.541 631.631 339.947C631.631 334.041 629.1 329.4 626.147 329.4C623.194 329.4 617.709 325.603 613.491 320.962C603.366 309.15 591.975 310.416 579.319 325.603C573.413 332.775 568.35 336.572 568.35 334.462C568.35 327.712 590.288 308.306 597.459 308.306C601.256 308.306 604.631 304.931 605.053 300.712C605.475 296.494 602.944 292.697 599.569 292.697C596.194 292.697 593.663 295.228 593.663 298.603C593.663 303.244 579.319 306.619 567.506 304.509C565.397 304.509 564.131 305.775 564.131 307.462C564.131 309.15 558.225 311.259 551.475 311.681C541.35 312.525 537.553 310.416 534.6 303.244C531.647 295.65 530.803 295.228 530.803 300.712C530.381 308.728 517.725 311.681 517.725 304.087C517.725 301.556 516.038 299.869 513.506 299.869C511.397 299.869 509.288 302.822 509.288 306.197C509.288 309.572 507.6 312.525 505.069 312.525C502.959 312.525 500.85 310.416 500.85 307.462C500.85 300.712 480.178 274.556 475.116 274.556C472.584 274.556 474.694 279.619 479.334 285.525C489.459 298.603 490.725 314.634 482.288 318.009C478.069 319.697 476.803 318.431 478.491 314.212C479.756 310.416 478.069 308.306 473.428 308.306C468.366 308.306 466.678 310.837 468.366 316.744C469.631 321.806 468.788 323.916 466.256 322.65C464.147 321.384 458.663 323.494 454.444 327.291C445.163 335.306 433.35 333.197 433.35 323.072C433.35 319.697 430.397 316.744 427.022 316.744C423.647 316.744 420.694 320.541 420.694 325.181C420.694 329.822 418.163 333.619 414.788 333.619C411.834 333.619 406.35 336.572 403.397 340.791C397.913 347.119 398.756 347.541 410.147 344.587C462.459 332.775 468.366 339.947 417.741 353.869C387.366 361.884 381.881 361.462 392.006 351.337C394.959 348.384 395.381 346.275 393.272 346.275C391.163 346.275 393.694 343.322 398.756 339.525C410.147 331.509 410.569 324.337 399.6 314.634C391.584 307.462 391.163 307.462 391.163 314.212C391.163 318.009 392.85 320.119 395.381 318.853C397.913 317.166 398.334 319.275 396.647 323.494C394.116 329.822 393.694 329.822 390.319 323.072C387.788 319.275 387.366 311.259 389.053 305.353C391.584 295.228 392.006 295.228 399.178 301.556C403.397 305.353 408.881 308.306 411.834 308.306C414.788 308.306 415.631 310.416 413.944 313.369C411.834 316.322 412.678 316.744 416.053 314.634C422.803 310.837 401.288 286.791 393.694 289.744C390.741 291.009 382.725 288.9 375.975 285.103L363.741 278.775L381.459 280.462C401.709 282.15 405.928 280.041 399.178 271.603C393.694 265.275 375.131 264.431 366.694 269.916ZM553.584 335.306C559.069 340.791 564.553 344.166 565.819 342.9C567.084 341.634 568.35 342.9 568.35 345.431C568.35 353.025 563.709 351.337 553.163 339.947C547.678 334.041 539.663 329.4 535.444 329.4C524.053 329.4 505.069 345.431 498.319 360.619C495.366 367.791 492.834 371.166 492.413 368.212C492.413 365.259 494.522 358.931 497.053 353.869C499.584 349.228 500.428 344.587 499.584 343.322C498.319 342.056 494.522 346.697 490.725 353.447C487.35 359.775 483.975 363.15 483.975 361.041C483.553 358.509 482.709 352.603 481.444 347.962C480.6 341.634 482.288 338.259 488.194 336.572C492.834 335.306 497.897 336.15 499.163 338.259C500.428 340.369 506.756 338.681 512.663 334.041C527.85 322.65 541.35 323.072 553.584 335.306ZM587.756 345.853C586.491 347.962 588.178 350.494 591.553 352.181C600.834 355.556 599.569 378.337 589.444 388.462C579.741 398.166 578.897 401.541 586.913 398.587C594.084 395.634 602.1 378.759 602.522 363.994C603.366 353.869 603.366 353.869 605.053 362.306C607.584 375.384 599.147 399.853 590.709 402.806C583.959 405.337 570.459 397.744 574.678 393.525C575.944 392.259 574.678 388.884 572.569 386.353C567.928 380.447 571.725 354.712 577.209 354.712C579.319 354.712 581.006 351.759 581.006 348.384C581.006 345.009 583.116 342.056 585.647 342.056C587.756 342.056 589.022 343.744 587.756 345.853ZM524.897 365.681C523.631 367.369 525.319 371.166 529.116 374.962C533.334 379.603 534.6 385.931 533.334 395.634C530.803 409.556 520.678 423.9 516.459 419.681C515.194 418.416 513.084 419.259 511.397 421.791C510.131 424.322 511.397 426.431 514.772 426.431C521.522 426.431 531.647 415.463 536.709 403.228C538.819 397.744 540.506 396.478 541.772 400.275C544.303 407.025 532.069 426.009 523.209 429.384C511.397 434.025 502.959 424.322 502.116 405.759C501.694 396.478 503.381 388.462 505.491 388.462C508.022 388.462 508.444 386.353 507.178 383.822C503.803 379.181 516.459 363.15 523.209 363.15C525.741 363.15 526.584 364.416 524.897 365.681ZM325.35 434.869C320.288 436.556 312.272 443.728 307.209 450.056C302.569 455.963 298.35 459.759 298.35 457.65C298.35 451.322 321.131 430.65 327.459 431.072C332.1 431.072 331.256 432.338 325.35 434.869ZM353.194 439.509C359.944 451.744 356.991 451.744 346.022 440.353C339.272 433.603 338.428 430.65 342.647 430.65C346.022 430.65 350.663 434.447 353.194 439.509ZM335.897 447.103C347.288 453.431 346.866 477.9 335.053 488.869C329.991 493.931 321.553 497.306 316.069 496.884C308.053 496.463 306.788 493.931 306.788 479.588C306.788 468.197 309.741 459.759 316.069 453.009C326.616 442.041 326.194 442.041 335.897 447.103ZM73.0688 457.65C78.5531 463.556 81.5063 477.056 76.8656 477.056C73.0688 477.056 57.8813 460.181 57.8813 455.963C57.8813 449.634 65.8969 450.9 73.0688 457.65ZM94.1625 470.728C92.8969 474.103 93.3188 477.056 95.4281 477.056C97.1156 477.056 98.8031 480.009 98.8031 483.806C98.8031 489.713 97.9594 489.713 92.8969 482.963C86.1469 473.681 85.725 464.4 92.0531 464.4C94.5844 464.4 95.85 467.353 94.1625 470.728ZM168.834 483.384C168.413 490.134 166.303 496.884 164.616 498.572C159.553 503.634 138.038 506.588 138.038 501.947C138.038 499.838 135.084 498.15 131.709 498.15C126.647 498.15 116.944 486.338 116.944 479.588C116.944 478.322 125.381 477.056 135.506 477.056C146.053 477.056 155.756 474.947 157.022 472.416C162.084 464.4 169.678 471.572 168.834 483.384ZM357.413 477.478C357.413 489.713 331.256 515.025 318.6 515.025C306.366 515.025 292.022 501.103 295.397 493.088C297.084 489.713 297.928 490.134 297.928 495.197C298.35 498.994 302.991 504.9 308.897 507.431C317.756 511.65 321.553 510.806 331.256 504.056C337.584 499.416 345.6 489.713 348.975 482.119C356.569 466.509 357.413 465.666 357.413 477.478Z" fill="black"/>
<path d="M324.084 457.65C321.131 461.447 316.912 463.134 314.803 461.869C312.694 460.603 311.85 462.713 313.116 466.088C320.287 488.447 319.022 487.181 327.459 479.588C333.787 474.103 335.897 473.681 337.584 477.9C338.85 480.853 339.694 479.588 338.85 474.947C338.428 470.306 336.319 463.134 333.787 458.916C329.991 452.166 328.725 451.744 324.084 457.65Z" fill="black"/>
<path d="M627.412 269.072C627.412 271.181 629.1 274.978 631.209 277.931C634.162 282.572 635.006 282.572 637.116 277.509C638.381 274.134 638.381 269.916 637.116 268.65C633.319 265.275 627.412 265.697 627.412 269.072Z" fill="black"/>
<path d="M461.616 291.431C465.412 298.181 471.319 304.088 474.694 304.088C478.491 304.088 477.647 300.291 471.319 291.431C466.256 284.259 460.35 278.775 458.241 278.775C455.709 278.775 457.397 284.259 461.616 291.431Z" fill="black"/>
<path d="M443.897 296.494C450.647 304.509 453.6 310.837 450.647 311.681C448.116 312.525 446.006 315.9 446.006 318.853C446.006 321.806 443.475 325.603 440.944 326.869C437.991 328.134 439.256 328.978 443.475 328.134C448.116 327.712 453.178 322.228 455.709 315.478C459.084 305.353 457.819 301.556 449.803 293.119C435.881 277.931 430.819 280.884 443.897 296.494Z" fill="black"/>
<path d="M422.803 299.869C429.553 306.619 435.881 311.681 436.725 310.416C440.522 306.619 424.491 287.212 417.741 287.212C412.256 287.212 413.522 290.166 422.803 299.869Z" fill="black"/>
<path d="M99.6469 347.119C97.1156 355.978 97.5375 362.728 100.491 360.619C102.6 359.353 103.444 355.978 101.756 353.447C100.491 350.494 103.444 353.025 108.506 358.931C113.569 364.837 116.522 366.947 114.834 363.994C113.569 361.462 114.412 358.931 116.522 358.931C119.053 358.931 121.162 357.244 121.162 354.712C121.162 352.603 118.209 352.181 113.991 353.447C109.35 355.134 108.084 354.712 110.194 351.337C111.881 348.384 110.616 346.275 106.819 346.275C103.022 346.275 100.069 346.697 99.6469 347.119Z" fill="black"/>
<path d="M251.522 350.072C251.1 351.338 250.678 355.134 250.256 358.088C250.256 361.041 246.881 365.259 243.506 367.369C238.022 370.744 238.022 371.588 244.35 371.588C248.147 371.588 252.788 367.369 254.475 361.884C257.428 353.025 257.428 353.025 260.803 361.041C263.756 368.213 264.178 368.213 263.334 358.509C263.334 352.603 260.381 347.541 257.428 347.541C254.475 347.541 251.522 348.806 251.522 350.072Z" fill="black"/>
<path d="M300.038 350.072C301.725 352.181 298.772 353.025 294.131 351.759C288.647 350.494 284.85 352.181 283.162 356.4C279.366 366.103 282.741 368.212 295.819 364.837C306.366 362.306 312.272 346.275 302.147 346.275C300.038 346.275 298.772 347.962 300.038 350.072Z" fill="black"/>
<path d="M216.928 363.994C218.616 372.009 218.194 372.853 213.975 367.369C209.756 361.884 209.334 362.306 211.444 368.634C212.709 372.853 213.975 377.494 213.975 378.338C213.975 379.181 216.084 380.025 218.194 380.025C220.725 380.025 222.413 374.119 222.413 367.369C222.413 360.197 220.725 354.713 218.616 354.713C216.506 354.713 215.663 358.931 216.928 363.994Z" fill="black"/>
<path d="M226.631 358.931C226.631 362.306 228.741 368.213 230.85 371.588C234.647 377.072 235.069 377.072 235.069 371.588C235.069 368.213 232.959 362.306 230.85 358.931C227.053 353.447 226.631 353.447 226.631 358.931Z" fill="black"/>
<path d="M229.922 226.969C228.656 228.234 227.812 245.531 227.812 265.781V302.484H240.047C251.859 302.484 252.281 301.641 254.812 273.375C257.344 250.172 256.5 243.422 251.438 237.937C247.641 234.562 244.688 229.922 244.688 228.234C244.688 224.437 233.297 223.594 229.922 226.969Z" fill="#151515"/>
<path d="M525.234 345.094C523.125 346.781 518.484 351.422 515.109 355.64C509.625 362.39 510.047 362.39 521.438 356.484C535.781 348.89 547.172 354.375 556.453 373.781C562.359 385.172 562.359 385.172 565.734 376.734C572.484 359.015 540.422 333.703 525.234 345.094Z" fill="#151515"/>
<path d="M460.688 353.109C452.25 356.484 463.219 367.031 475.453 367.031C483.047 367.031 485.578 364.922 484.313 359.437C483.047 352.266 470.813 348.891 460.688 353.109Z" fill="#151515"/>
<path d="M396.141 370.406C390.234 371.25 389.812 373.359 394.031 381.797C399.094 393.187 400.359 394.031 408.797 388.547C413.859 385.172 413.859 383.484 408.797 376.734C405.422 372.516 399.937 369.562 396.141 370.406Z" fill="#151515"/>
<path d="M485.156 401.625L485.578 419.766L491.484 405.422C499.5 387.703 499.5 383.906 491.484 383.906C486.844 383.906 485.156 388.547 485.156 401.625Z" fill="#151515"/>
<path d="M309.656 408.797C295.734 417.234 278.016 438.75 272.109 453.516C270.422 458.156 266.625 475.031 264.094 490.641C259.875 513.844 259.875 520.172 264.516 523.969C267.469 526.5 270 527.766 270 526.922C270.422 526.078 271.266 513.844 272.531 499.922C276.75 449.719 307.125 409.219 340.453 409.219C354.797 409.219 363.656 415.969 380.531 439.172C387.703 449.297 387.703 449.297 383.906 435.375C375.047 403.312 339.609 390.656 309.656 408.797Z" fill="#151515"/>
<path d="M579.656 262.406C580.078 270 575.859 272.531 552.656 279.281C525.656 286.453 525.656 286.453 546.328 284.344C574.594 280.969 575.016 280.969 581.344 277.172C586.828 273.375 588.516 253.125 583.031 253.125C580.922 253.125 579.656 257.344 579.656 262.406Z" fill="#159615"/>
<path d="M377.156 297.844C378.422 301.641 379.687 318.516 379.687 336.234C379.687 364.078 380.531 367.453 387.281 366.187C393.609 364.922 394.453 360.281 393.187 333.281C392.344 303.75 387.703 291.094 378.844 291.094C376.312 291.094 375.891 294.047 377.156 297.844Z" fill="#159615"/>
<path d="M576.703 329.906C571.219 337.5 565.313 347.625 563.625 351.844C561.516 358.594 561.938 359.016 567.422 354.375C570.797 351.422 573.75 346.781 573.75 343.828C573.75 340.875 578.391 333.703 584.297 327.375C589.781 321.469 592.734 316.406 590.625 316.406C588.516 316.406 582.188 322.734 576.703 329.906Z" fill="#159615"/>
<path d="M510.469 345.516C495.703 361.125 486.422 379.688 493.594 379.688C495.281 379.688 498.234 375.047 499.5 369.141C501.187 363.234 504.141 359.437 506.25 360.703C508.359 361.969 509.203 360.703 507.937 357.328C505.828 351.422 521.016 337.5 535.781 332.016C540.422 330.328 540 329.484 534.094 329.484C529.453 329.062 518.906 336.656 510.469 345.516Z" fill="#159615"/>
<path d="M159.469 201.234C164.531 202.078 168.75 204.609 168.75 206.719C168.75 221.063 158.203 253.969 151.453 261.984C145.125 269.156 143.859 275.063 145.969 284.344C147.234 291.516 150.188 297.844 152.297 298.688C154.406 299.531 156.094 302.906 156.094 306.281C156.094 314.719 164.531 313.453 164.953 304.594C164.953 300.797 165.797 291.516 166.641 284.766C167.484 277.594 169.172 263.672 170.016 253.125C171.281 242.578 173.391 230.766 174.656 226.547C175.922 222.75 178.031 216.422 179.297 213.047C181.406 205.875 169.172 197.859 157.359 198.703C151.875 199.125 152.297 199.969 159.469 201.234Z" fill="#151540"/>
<path d="M217.266 216.422C210.516 226.969 202.922 267.469 202.5 294.469C202.5 306.703 203.766 308.391 211.781 307.125C218.109 306.281 221.906 308.391 223.172 314.719C225.281 322.313 227.391 322.734 239.625 319.781C253.547 315.984 257.766 306.281 246.797 302.063C243.422 300.797 237.516 300.797 234.141 302.484C228.234 304.594 227.812 299.531 228.656 265.781C229.922 232.453 231.188 226.125 237.094 225.281C241.312 224.859 245.531 227.813 246.797 232.453C248.484 236.672 251.438 240.469 253.547 240.469C255.656 240.469 257.344 252.703 257.344 267.891C257.344 298.266 260.297 300.797 283.078 288.984L295.734 282.234L294.469 247.641L293.203 213.047L273.375 211.781C260.719 210.938 253.125 212.203 253.125 215.156C253.125 220.219 231.188 216 227.391 209.672C225.703 207.563 221.484 210.516 217.266 216.422Z" fill="#151540"/>
<path d="M558.141 400.781C557.719 415.125 559.406 421.875 563.203 423.563C568.266 425.25 568.688 421.875 566.578 405.844C563.203 378.422 558.984 375.891 558.141 400.781Z" fill="#151540"/>
<path d="M402.047 402.469C403.734 406.688 403.312 408.797 400.781 407.109C398.25 405.844 396.562 406.688 396.562 408.797C396.562 411.328 400.359 413.438 405.422 413.438C415.125 413.438 415.125 400.781 405.422 397.406C401.203 396.141 400.359 397.406 402.047 402.469Z" fill="#151540"/>
<path d="M489.375 410.906C489.375 414.281 486 420.187 482.203 423.984C477.141 429.469 476.297 432.844 479.672 438.328C485.156 446.766 496.125 447.187 494.437 438.75C493.594 435.375 492.75 426.094 492.75 418.5C492.75 411.328 491.906 405 491.062 405C490.219 405 489.375 407.531 489.375 410.906Z" fill="#151540"/>
<path d="M306.281 422.297C299.953 426.938 291.094 438.75 286.453 448.031C277.594 465.328 268.734 507.516 274.641 504.141C276.328 502.875 278.437 504.563 279.703 507.094C280.547 510.047 284.766 501.609 288.984 488.531C293.203 475.453 298.687 465.75 300.797 467.016C303.328 468.281 303.75 467.438 302.062 464.484C300.375 461.953 301.641 454.781 305.437 449.297C313.875 436.219 313.875 432.844 305.437 436.219C299.109 438.75 299.109 437.906 304.172 431.578C307.547 427.359 313.031 421.875 316.406 418.922C319.781 415.969 321.469 413.438 320.203 413.438C318.516 413.438 312.609 417.234 306.281 422.297Z" fill="#151540"/>
<path d="M319.781 424.828C315.562 425.672 312.188 428.625 312.188 430.734C312.188 436.641 318.937 435.375 324.844 428.203C327.797 424.828 329.484 422.297 328.641 422.297C327.797 422.719 323.578 423.563 319.781 424.828Z" fill="#151540"/>
<path d="M399.094 428.625C395.719 437.484 397.828 439.594 406.688 436.219C414.281 433.266 413.859 425.672 406.266 423.141C403.734 422.297 400.781 424.828 399.094 428.625Z" fill="#151540"/>
<path d="M72.1406 491.906C80.5781 502.453 112.641 523.125 115.594 520.172C118.969 516.375 118.969 510.047 115.172 511.312C109.688 513 92.8125 499.5 95.7656 496.125C97.4531 494.437 95.3438 494.437 91.125 496.125C84.7969 498.656 83.9531 497.812 86.4844 493.594C88.5938 490.219 88.1719 488.953 85.2188 491.062C82.6875 492.328 79.7344 491.906 78.0469 489.375C76.7813 487.266 73.4063 485.156 70.875 485.156C68.3438 485.156 68.7656 487.687 72.1406 491.906Z" fill="#151540"/>
<path d="M226.969 516.797C225.281 518.484 210.516 521.859 201.656 522.703C199.547 523.125 198.281 525.234 198.281 527.766C198.281 532.828 224.438 529.453 235.828 523.547C240.469 520.594 240.047 519.75 234.984 517.641C231.609 516.375 227.813 515.953 226.969 516.797Z" fill="#151540"/>
<path d="M270 521.437C270 526.5 272.953 531.562 276.328 533.25C284.344 536.203 284.344 531.141 276.328 520.594C270.422 512.578 270.422 512.578 270 521.437Z" fill="#151540"/>
<path d="M155.672 220.219C142.172 233.297 136.266 244.687 132.891 263.25C131.203 271.687 128.25 278.437 126.562 278.437C124.453 278.437 124.031 282.234 125.297 286.875C126.562 291.516 125.297 295.312 122.766 295.312C116.859 295.312 121.5 306.703 127.828 306.703C130.781 306.703 137.953 308.391 144.703 310.078C153.562 312.187 156.094 311.766 156.094 306.703C156.094 303.328 154.406 299.531 152.297 298.687C150.187 297.844 147.234 291.516 145.969 284.344C143.859 274.641 145.125 269.156 150.187 263.672C156.937 256.922 170.437 215.578 167.062 212.203C166.219 211.359 161.156 214.734 155.672 220.219Z" fill="#154040"/>
<path d="M210.516 325.266C206.297 327.797 207.562 329.062 216 329.062C222.328 329.062 228.234 327.375 229.5 325.687C232.453 321.047 218.109 320.625 210.516 325.266Z" fill="#154040"/>
<path d="M583.453 342.563C572.484 355.219 565.312 376.734 565.312 397.828C565.312 420.609 570.797 414.281 572.484 389.813C573.75 365.766 585.562 344.25 598.219 342.563C603.281 341.719 606.656 339.188 605.391 337.078C601.172 330.75 592.312 332.859 583.453 342.563Z" fill="#154040"/>
<path d="M513.422 367.875C499.922 386.016 490.219 415.547 492.75 429.469C494.437 438.328 496.125 434.953 499.922 414.281C505.828 383.484 517.219 365.344 532.828 363.656C541.687 362.391 544.641 364.5 546.75 373.781C548.437 380.109 552.234 390.234 555.187 396.141L561.094 407.109V395.297C561.094 388.547 559.406 384.328 556.875 386.016C554.344 387.703 552.656 383.484 552.656 376.734C552.656 351 529.875 346.359 513.422 367.875Z" fill="#154040"/>
<path d="M413.859 368.719C410.062 373.359 409.641 377.156 413.016 382.641C417.234 389.812 417.234 389.812 417.656 381.797C417.656 374.625 418.5 374.625 421.875 379.687C425.672 385.172 426.094 385.172 426.094 379.687C426.094 376.312 424.406 370.828 422.297 367.875C419.766 363.656 418.078 363.656 413.859 368.719Z" fill="#154040"/>
<path d="M371.25 372.938C371.25 375.891 374.203 380.953 377.578 383.906C382.641 388.125 384.328 387.703 386.438 381.797C388.125 377.578 386.859 372.938 383.484 370.828C375.047 365.766 371.25 366.188 371.25 372.938Z" fill="#154040"/>
<path d="M408.375 394.453C410.484 399.094 413.437 405.844 414.703 409.219C416.812 414.703 417.234 414.703 417.234 408.797C417.656 405.422 414.703 398.672 410.906 394.031C404.578 386.016 404.578 386.016 408.375 394.453Z" fill="#154040"/>
<path d="M320.203 415.969C307.125 424.406 296.156 440.016 305.859 436.219C313.875 432.844 313.875 436.641 305.437 449.297C297 461.953 303.328 463.641 312.187 450.984C321.891 437.484 339.187 429.469 345.937 435.797C350.156 439.594 350.578 439.594 348.469 435.375C346.781 432.422 348.047 430.313 351.844 430.313C355.641 430.313 358.594 433.688 358.594 438.328C358.594 442.969 360.703 448.031 362.812 449.297C365.344 450.984 366.187 453.516 364.922 455.625C363.656 457.734 364.5 460.266 366.609 461.531C373.781 466.172 375.047 457.313 368.719 445.5C361.547 430.734 361.125 420.188 368.297 424.406C370.828 426.094 370.406 423.984 366.609 419.766C356.906 409.641 333.703 407.531 320.203 415.969ZM324.844 428.203C318.937 435.375 312.187 436.641 312.187 430.734C312.187 428.625 315.562 425.672 319.781 424.828C323.578 423.563 327.797 422.719 328.641 422.297C329.484 422.297 327.797 424.828 324.844 428.203Z" fill="#154040"/>
<path d="M491.906 446.344C490.641 448.875 492.328 451.828 496.125 453.094C505.828 456.891 507.937 453.938 500.344 447.609C496.969 444.656 493.172 444.234 491.906 446.344Z" fill="#154040"/>
<path d="M55.2656 477.141C59.9062 486.422 67.5 491.484 67.5 485.578C67.5 483.469 65.3906 480.094 63.2812 478.828C60.75 477.141 59.9062 474.609 60.75 472.922C62.0156 471.234 60.3281 469.547 56.9531 469.547C52.7344 469.547 52.3125 471.656 55.2656 477.141Z" fill="#154040"/>
<path d="M364.5 479.25C363.234 486 359.016 495.703 356.062 500.766C351 508.781 351 510.047 356.062 507.937C361.969 505.828 373.359 473.344 369.562 469.547C368.297 468.281 366.188 472.922 364.5 479.25Z" fill="#154040"/>
<path d="M287.297 494.438C283.078 507.094 280.969 510.469 278.016 505.828C275.063 501.188 274.219 502.031 274.219 508.781C274.219 526.078 296.578 534.938 300.797 518.906C302.063 513.422 301.219 511.313 298.266 513.422C295.313 515.109 294.891 513.422 297 508.359C298.688 504.141 297.844 499.5 294.891 497.813C291.516 495.281 291.516 492.328 294.891 485.578C297.844 480.938 298.266 476.719 296.156 476.719C294.047 476.719 290.25 484.734 287.297 494.438Z" fill="#154040"/>
<path d="M151.875 212.203C143.437 218.953 116.437 273.375 115.172 285.609C114.75 291.938 116.859 295.312 121.078 295.312C125.297 295.312 126.984 292.781 125.297 286.875C124.031 282.234 124.453 278.438 126.562 278.438C128.25 278.438 131.203 271.688 132.891 263.25C135.844 247.219 141.75 234.562 151.031 224.438C153.562 221.484 156.094 216.844 156.094 214.734C156.094 212.203 157.781 211.359 159.891 213.047C162 214.312 164.953 213.469 166.641 210.938C170.437 205.031 159.469 205.875 151.875 212.203Z" fill="#404040"/>
<path d="M254.391 291.094C254.391 303.75 255.234 309.234 256.078 302.484C256.922 296.156 256.922 286.031 256.078 279.281C255.234 272.953 254.391 278.437 254.391 291.094Z" fill="#404040"/>
<path d="M116.437 317.672C118.125 321.891 123.187 326.953 128.25 329.906C135.844 333.703 136.266 333.281 130.781 328.641C127.406 325.266 122.344 319.781 119.391 316.406C114.75 310.922 114.328 310.922 116.437 317.672Z" fill="#404040"/>
<path d="M585.984 348.891C580.5 355.219 580.922 355.219 588.516 351C603.281 343.406 611.719 351.844 612.141 374.625L612.984 394.453L615.516 377.578C617.203 368.297 616.359 356.484 614.25 351C609.609 340.031 594.422 338.766 585.984 348.891Z" fill="#404040"/>
<path d="M518.062 369.984C509.625 380.109 502.031 394.453 502.031 401.625C502.031 404.578 505.828 399.094 510.891 389.812C520.594 369.984 532.406 364.5 542.953 374.625C549.703 381.375 549.703 381.375 547.172 374.203C545.484 369.984 544.219 365.344 544.219 364.5C544.219 359.437 523.547 364.078 518.062 369.984Z" fill="#404040"/>
<path d="M97.0312 377.578C106.312 383.062 106.734 383.484 99.1406 383.906C90.7031 384.328 90.7031 384.328 99.5625 391.5C105.891 396.984 107.578 401.203 105.047 407.109C102.516 413.859 101.672 413.859 101.672 408.797C101.25 401.625 89.4375 394.453 85.2187 398.672C83.9531 399.937 85.2187 400.781 87.75 400.781C90.7031 400.781 92.8125 403.312 92.8125 406.687C92.8125 416.391 105.891 418.5 113.906 410.484C120.234 403.734 120.234 402.047 114.75 393.187C110.953 387.281 110.531 383.906 113.484 383.906C116.016 383.906 118.125 386.859 118.125 390.234C118.125 393.609 120.234 396.562 122.344 396.562C124.875 396.562 126.562 399.094 125.719 401.625C124.875 404.578 126.562 407.109 128.672 407.109C131.203 407.109 132.891 402.469 132.891 396.562C133.312 387.703 129.937 385.172 111.797 378.844C86.0625 369.984 83.1094 369.562 97.0312 377.578Z" fill="#404040"/>
<path d="M552.234 378.422C551.813 391.5 550.125 406.688 547.594 419.766C546.328 426.516 546.328 429.891 547.172 426.938C548.438 424.406 550.547 421.875 552.234 421.875C553.922 421.875 555.609 410.484 556.031 396.563C556.031 382.641 555.609 371.25 554.344 371.25C553.5 371.25 552.656 374.625 552.234 378.422Z" fill="#404040"/>
<path d="M420.188 388.125C423.563 406.266 426.094 409.641 426.094 396.141C426.094 390.656 423.984 383.063 421.875 379.688C418.922 375.047 418.5 377.578 420.188 388.125Z" fill="#404040"/>
<path d="M383.906 388.969C383.906 391.922 386.016 397.406 388.547 400.781C392.344 405.844 392.766 405.844 390.656 399.094C388.969 394.453 390.234 389.391 393.188 387.281C397.406 384.75 396.562 383.906 391.5 383.906C387.281 383.906 383.906 386.438 383.906 388.969Z" fill="#404040"/>
<path d="M569.531 412.594C569.531 419.344 581.344 432.422 584.719 429.047C586.406 427.359 585.562 426.094 583.031 426.094C580.078 426.094 577.969 422.297 577.969 417.656C577.969 413.016 576.281 409.219 573.75 409.219C571.641 409.219 569.531 410.906 569.531 412.594Z" fill="#404040"/>
<path d="M498.234 428.203C497.812 441.703 499.922 446.344 507.516 450.984C515.953 456.469 516.375 456.469 510.891 449.719C507.516 445.922 503.297 435.375 501.609 426.938L498.656 411.328L498.234 428.203Z" fill="#404040"/>
<path d="M124.453 421.875C123.188 423.984 123.188 428.625 124.875 431.156C127.406 435.375 126.984 435.375 121.922 431.578C116.438 427.359 113.906 427.359 107.578 431.578C100.828 437.062 101.25 437.906 113.484 442.547C120.656 445.922 125.297 449.719 124.031 451.828C122.766 453.937 119.391 454.359 116.859 452.672C113.906 450.984 110.109 449.297 107.578 448.875C105.469 448.453 99.5625 446.766 94.9219 445.078L86.4844 442.125L94.9219 447.609C99.5625 450.562 105.047 455.203 106.734 458.578C110.953 465.328 121.078 465.75 123.188 459C124.453 456.047 133.312 453.937 145.969 453.937C163.688 454.359 164.109 453.937 149.766 452.672C130.781 450.562 121.078 444.234 125.297 437.062C129.094 431.578 131.625 417.656 129.094 417.656C127.828 417.656 125.719 419.344 124.453 421.875Z" fill="#404040"/>
<path d="M411.328 428.203C411.328 434.109 412.594 438.75 414.703 438.75C416.391 438.75 417.656 434.109 417.656 428.203C417.656 422.297 416.391 417.656 414.703 417.656C412.594 417.656 411.328 422.297 411.328 428.203Z" fill="#404040"/>
<path d="M280.969 424.828C279.281 426.938 275.906 428.203 273.375 428.203C265.781 428.203 251.859 450.141 251.437 463.219C251.016 472.078 249.328 475.031 245.109 473.344C241.312 472.078 240.047 472.922 242.156 475.875C245.953 481.781 259.875 482.625 263.672 477.141C264.937 475.031 264.094 471.656 261.562 470.391C258.609 468.703 259.875 464.906 265.359 460.266C270 456.047 272.953 451.406 271.266 449.719C269.578 448.453 272.531 441.281 278.016 434.531C286.453 422.719 288.141 417.656 280.969 424.828Z" fill="#404040"/>
<path d="M362.812 426.937C362.812 430.734 365.766 438.75 368.719 445.5C375.469 458.156 373.781 466.172 365.766 461.109C362.391 459.422 362.812 460.687 366.188 464.906C370.828 470.391 370.828 475.031 366.609 488.109C356.906 520.594 321.047 534.516 302.906 513.422L294.469 504.141L297.844 516.375C300.375 527.766 299.953 528.609 289.828 526.5L278.859 524.391L287.297 536.203L295.734 548.438L304.594 540C309.656 535.359 317.672 531.562 322.312 531.562C327.375 531.562 338.766 527.344 347.625 521.859C361.125 514.266 365.766 508.359 372.516 489.375C376.734 476.719 382.219 464.484 383.906 462.375C386.438 459.844 384.328 452.25 378.844 443.391C366.609 422.719 362.812 418.922 362.812 426.937Z" fill="#404040"/>
<path d="M171.281 429.891C169.594 432 160.734 435.375 150.609 437.063C136.687 439.172 134.578 440.438 141.328 442.969C148.922 445.922 181.406 433.688 181.406 428.203C181.406 424.406 173.391 426.094 171.281 429.891Z" fill="#404040"/>
<path d="M340.453 435.797C341.719 437.484 343.828 438.328 345.094 437.062C346.359 435.797 349.734 436.641 353.109 439.172C357.328 442.969 358.594 442.547 358.594 437.062C358.594 432.422 355.219 430.734 348.469 431.156C342.562 431.578 339.187 433.687 340.453 435.797Z" fill="#404040"/>
<path d="M345.516 450.141C347.625 454.359 350.578 461.531 352.266 465.75C353.531 469.969 355.641 472.922 356.484 471.656C359.859 468.703 349.734 442.969 345.516 442.969C343.406 442.969 343.406 445.922 345.516 450.141Z" fill="#404040"/>
<path d="M177.188 481.359C177.188 486.844 179.297 494.437 181.406 497.812C184.359 502.453 184.781 499.922 183.094 489.375C179.719 471.234 177.188 467.859 177.188 481.359Z" fill="#404040"/>
<path d="M234.141 485.156C237.094 489.797 226.125 502.875 222.328 499.5C221.062 498.234 218.953 499.078 217.266 501.609C213.047 508.781 226.547 507.094 233.719 499.5C241.312 491.906 242.578 480.938 235.828 480.938C233.719 480.938 232.875 483.047 234.141 485.156Z" fill="#404040"/>
<path d="M190.688 509.203L189.844 535.781L198.281 527.344C203.344 522.281 208.828 519.75 210.516 521.016C212.625 522.281 213.891 520.172 213.469 516.797C212.203 507.938 206.719 503.719 206.719 511.734C206.719 515.531 203.766 518.906 199.969 518.906C194.062 518.906 193.641 518.062 198.703 511.734C202.078 507.516 202.5 505.828 199.547 507.516C196.172 509.625 194.062 506.25 192.797 496.969C191.953 488.953 190.688 494.859 190.688 509.203Z" fill="#404040"/>
<path d="M238.781 502.453C231.609 510.891 231.609 511.313 241.312 508.359C253.969 504.141 255.656 502.875 250.594 497.813C248.062 495.281 243.844 496.969 238.781 502.453Z" fill="#404040"/>
<path d="M169.594 506.672C166.641 511.312 162.422 513.844 160.312 512.578C157.781 511.312 156.094 511.734 156.094 514.266C156.094 517.219 152.719 517.219 145.125 514.266C138.797 512.156 132.891 510.891 132.047 512.156C130.781 513 134.156 515.109 138.797 516.797C143.859 518.062 146.813 521.438 145.547 523.547C143.016 527.344 160.312 535.781 170.859 535.781C173.812 535.781 177.188 532.828 178.453 529.453C180.562 524.812 178.875 524.391 171.703 526.922C166.641 529.031 158.625 529.031 153.984 526.922C148.078 524.812 147.234 523.547 151.875 523.125C155.25 522.281 159.469 522.281 161.578 522.703C163.266 522.703 164.531 521.016 164.531 518.484C164.531 516.375 166.641 515.531 169.594 517.219C172.125 518.906 172.969 518.484 171.281 515.531C170.016 513 171.281 510.469 175.078 509.625C178.453 508.781 179.719 506.25 178.031 503.297C175.5 499.5 173.391 500.344 169.594 506.672Z" fill="#404040"/>
<path d="M335.391 506.25C333.703 508.781 331.172 509.625 329.062 508.359C326.953 507.094 324.422 507.938 322.734 510.469C318.516 517.219 331.594 515.531 337.5 508.359C340.453 504.984 341.719 502.031 340.453 502.031C339.187 502.031 336.656 504.141 335.391 506.25Z" fill="#404040"/>
<path d="M531.562 126.562C536.625 129.937 535.781 130.781 527.344 130.359C521.437 130.359 493.172 132.047 464.062 134.578C434.953 137.109 405.844 138.797 398.672 138.375C388.125 137.109 386.016 138.797 385.594 146.812C385.172 154.828 385.172 155.25 386.859 147.656C388.125 140.906 390.656 139.641 397.828 141.75C409.219 145.547 446.344 144.281 495.281 138.797C524.812 135.844 533.672 135.844 536.625 140.062C541.266 147.656 540.844 156.094 536.203 156.094C526.078 156.094 561.516 230.766 581.344 251.437C583.875 254.391 586.406 262.828 586.406 270.422C586.406 283.5 586.828 283.922 602.859 281.391C612.562 280.125 621.844 281.391 624.797 284.344C629.016 287.719 629.016 287.297 624.797 281.391C621.844 277.594 620.578 274.219 622.687 274.219C624.797 274.219 623.109 272.109 618.891 269.578C615.094 267.047 612.562 263.672 613.828 261.141C615.516 259.031 614.25 257.344 611.719 257.344C609.187 257.344 608.344 255.234 609.609 253.125C610.875 250.594 610.031 248.906 607.078 248.906C604.125 248.906 602.859 247.641 604.547 246.375C605.812 245.109 603.703 240.469 599.906 235.828C596.109 231.187 592.734 226.125 592.734 224.437C592.734 222.75 583.875 206.297 572.484 187.312C561.516 168.75 552.656 151.031 552.656 148.5C552.656 145.547 550.547 143.437 548.437 143.437C545.906 143.437 542.109 138.797 540 132.891C537.891 126.984 533.672 122.344 530.719 122.344C526.922 122.344 527.344 123.609 531.562 126.562Z" fill="#159640"/>
<path d="M426.094 193.219C426.094 199.547 436.641 219.375 440.016 219.375C444.234 219.375 443.812 211.781 438.75 208.828C436.641 207.562 434.531 202.5 434.531 197.859C434.531 193.641 432.844 189.844 430.312 189.844C428.203 189.844 426.094 191.531 426.094 193.219Z" fill="#159640"/>
<path d="M413.438 203.344C410.484 209.25 409.219 219.375 410.906 225.281C413.859 237.094 421.875 240.469 421.875 229.922C421.875 226.547 420.188 223.594 418.078 223.594C413.438 223.594 414.281 209.672 419.344 206.297C421.453 204.609 421.875 200.813 421.031 197.859C419.344 194.063 416.813 195.75 413.438 203.344Z" fill="#159640"/>
<path d="M483.469 292.359C487.687 298.688 493.172 303.75 494.859 303.75C496.969 303.75 497.391 305.438 496.125 307.125C494.859 309.234 496.547 310.922 499.922 310.922C504.562 310.922 503.719 307.547 496.547 297.844C483.891 282.234 472.078 276.75 483.469 292.359Z" fill="#159640"/>
<path d="M441.703 289.828C440.016 291.937 443.813 298.266 449.297 303.75C454.781 309.234 458.578 315.141 457.313 316.828C456.047 318.937 457.313 320.625 459.422 320.625C466.594 320.625 464.906 307.969 457.313 305.016C453.516 303.75 449.297 298.687 447.609 294.047C445.922 289.406 442.969 287.297 441.703 289.828Z" fill="#159640"/>
<path d="M462.375 291.938C467.859 301.641 477.984 312.188 481.781 312.188C483.891 312.188 481.781 306.281 476.719 299.531C468.281 287.297 456.047 281.391 462.375 291.938Z" fill="#159640"/>
<path d="M420.609 294.047C419.344 296.156 423.562 303.75 430.312 310.078C445.5 324.422 447.187 319.359 433.266 302.063C427.781 295.313 421.875 291.516 420.609 294.047Z" fill="#159640"/>
<path d="M396.563 301.641C393.609 305.437 392.344 309.234 394.031 310.922C395.297 312.187 396.563 310.922 396.563 307.969C396.563 304.172 400.359 305.859 407.109 312.187C412.594 317.25 415.969 324 414.703 326.531C413.016 329.062 415.125 328.641 418.922 325.266C426.094 319.781 425.672 318.516 415.125 307.125C401.203 293.203 403.313 293.625 396.563 301.641Z" fill="#159640"/>
<path d="M599.484 300.375C599.062 304.172 594.844 308.391 589.781 310.078C584.297 311.344 572.484 314.719 563.625 317.672C551.812 321.047 546.328 321.047 545.484 318.094C544.219 314.719 533.25 315.984 511.312 321.469C493.594 326.109 475.453 329.906 471.656 329.906C467.438 329.484 463.219 331.594 461.953 333.703C460.266 335.812 457.734 336.656 455.625 335.391C450.562 332.016 412.172 342.141 408.375 347.625C406.688 350.156 403.734 347.625 401.203 341.719C396.984 331.172 396.984 331.594 396.984 344.672L396.562 357.75L418.922 351.844C444.656 345.094 461.531 344.25 457.734 350.156C456.047 353.109 458.578 353.109 465.75 350.156C471.656 348.047 483.047 346.359 490.641 346.781C499.5 347.203 510.047 343.406 518.484 337.078L531.984 326.953L548.438 336.234L564.891 345.094L575.859 330.75C584.297 319.781 590.203 316.406 599.906 316.406C607.078 316.406 611.719 315.141 610.453 313.453C608.766 312.187 610.031 307.969 612.984 304.594C617.203 299.109 616.781 298.266 610.875 300.797C607.078 302.062 602.859 301.219 601.594 298.266C600.75 295.312 599.484 296.156 599.484 300.375Z" fill="#159640"/>
<path d="M485.578 361.547C485.156 366.609 487.266 372.094 489.375 373.359C494.438 376.313 494.438 372.516 489.375 360.703C486 352.688 485.578 352.688 485.578 361.547Z" fill="#159640"/>
<path d="M511.734 272.953C495.703 274.641 494.437 275.484 498.656 282.234C502.453 288.562 505.406 288.984 519.328 285.187C528.609 283.078 535.781 278.437 535.781 275.484C535.781 272.531 534.516 270.422 532.828 270.844C530.719 271.266 521.437 272.109 511.734 272.953Z" fill="#15C140"/>
<path d="M621.844 278.016C623.531 280.125 620.156 283.078 615.094 283.922C607.5 285.187 607.922 285.609 616.781 285.187C623.109 285.187 628.594 286.453 628.594 288.141C628.594 289.828 628.594 292.359 628.594 294.469C628.594 296.156 624.375 299.531 619.312 301.641C613.828 304.172 610.031 307.547 610.875 310.078C611.719 312.187 607.922 315.562 602.437 317.25L592.734 319.781L602.437 320.203C607.5 320.625 612.984 320.203 614.25 319.359C615.937 318.937 618.469 322.734 620.578 327.797C622.687 333.281 626.906 337.5 630.703 337.5C634.5 337.5 637.031 341.297 637.031 347.625C637.031 355.641 638.719 357.328 645.047 355.641C650.531 354.375 652.641 350.156 652.219 341.297C651.797 334.547 650.531 329.062 648.844 329.062C647.578 329.062 647.156 325.266 648.422 320.625C649.687 315.984 649.266 305.437 647.578 296.578C645.469 285.187 643.781 282.656 640.828 287.297C638.719 290.672 637.031 291.094 637.031 288.984C637.031 286.453 633.234 282.234 628.172 279.281C623.109 275.906 620.578 275.484 621.844 278.016Z" fill="#15C140"/>
<path d="M392.344 295.312C392.344 303.328 393.609 304.172 397.406 300.375C401.203 296.578 401.203 294.047 397.406 290.25C393.609 286.453 392.344 287.297 392.344 295.312Z" fill="#15C140"/>
<path d="M476.719 312.188C467.859 315.141 467.859 315.562 474.609 315.984C479.25 315.984 486 314.297 489.375 312.188C496.969 307.547 491.484 307.547 476.719 312.188Z" fill="#15C140"/>
<path d="M392.766 319.359C392.344 329.906 398.672 335.812 403.313 328.641C405 325.687 404.578 324.844 401.625 326.531C399.094 327.797 396.563 325.266 395.297 319.781C393.609 310.078 393.609 310.078 392.766 319.359Z" fill="#15C140"/>
<path d="M544.219 337.922C550.125 340.031 558.141 346.359 562.359 351.422L569.953 360.703L565.312 351.422C560.672 341.297 548.437 333.281 539.156 333.703C536.203 333.703 538.312 335.812 544.219 337.922Z" fill="#15C140"/>
<path d="M418.078 351.844C407.531 354.375 398.672 359.016 397.406 361.969C396.562 364.922 396.984 367.031 398.672 367.031C406.688 367.031 453.938 353.109 457.734 349.734C463.219 344.672 441.281 345.516 418.078 351.844Z" fill="#15C140"/>
<path d="M485.578 349.734C485.578 351 487.266 355.641 488.953 360.281C491.906 367.453 492.328 367.453 498.656 357.328C505.406 347.203 505.406 346.781 495.281 346.781C489.797 346.781 485.156 348.047 485.578 349.734Z" fill="#15C140"/>
<path d="M105.891 223.172C100.406 235.406 96.1875 253.969 95.7656 268.312C94.9219 291.094 95.7656 292.781 105.891 295.312C115.594 298.266 116.859 297.422 115.594 288.141C114.75 278.437 141.328 220.219 149.344 214.312C151.875 212.625 155.25 212.625 157.781 213.891C159.891 215.156 160.312 214.312 158.625 211.781C157.359 209.25 159.469 206.297 163.266 205.453C167.484 204.187 158.203 203.344 143.016 202.922L115.594 202.5L105.891 223.172Z" fill="#40406B"/>
<path d="M87.75 378.422C83.5312 379.687 80.1562 382.219 80.1562 384.328C80.1562 388.547 83.1094 388.969 94.5 384.328C104.203 380.531 98.2969 376.312 87.75 378.422Z" fill="#40406B"/>
<path d="M318.094 393.187C313.031 399.094 312.609 400.781 316.828 397.406C320.625 394.875 324.844 393.609 326.109 395.297C327.797 396.562 329.063 394.875 329.063 391.078C329.063 381.797 327.797 382.219 318.094 393.187Z" fill="#40406B"/>
<path d="M89.4375 393.187C90.7031 396.141 95.7656 399.094 101.672 399.937C111.797 401.625 111.797 401.203 103.359 394.875C93.2344 386.859 87.3281 386.437 89.4375 393.187Z" fill="#40406B"/>
<path d="M80.1562 402.469C80.1562 405.844 83.1094 409.219 86.4844 410.906C91.9688 412.594 92.3906 411.75 88.5938 405C83.1094 395.297 80.1562 394.031 80.1562 402.469Z" fill="#40406B"/>
<path d="M576.703 399.094C572.906 402.891 577.969 423.141 583.875 426.937C588.937 430.312 602.016 419.766 608.344 407.109C612.562 399.094 612.562 399.094 604.969 405.422C592.734 415.969 583.031 418.078 580.5 410.484C579.234 407.109 578.812 402.469 580.5 400.359C583.031 396.141 580.5 395.297 576.703 399.094Z" fill="#40406B"/>
<path d="M502.875 428.625L504.562 453.516L518.062 453.094C534.516 452.25 544.219 445.078 544.219 433.266C544.219 425.672 543.375 425.25 539.156 431.156C525.656 447.609 503.719 439.172 507.516 418.922C508.359 413.438 507.516 407.953 505.406 406.688C502.875 405 502.031 413.859 502.875 428.625Z" fill="#40406B"/>
<path d="M75.9375 417.234C75.9375 419.766 78.0469 421.875 80.5781 421.875C82.6875 421.875 83.9531 423.562 82.6875 425.672C81.4219 427.781 83.1094 430.734 86.4844 432C91.9688 433.687 91.9688 432.844 88.5938 426.094C83.5312 416.391 75.9375 411.328 75.9375 417.234Z" fill="#40406B"/>
<path d="M97.0312 416.391C97.0312 423.141 103.781 428.203 113.062 428.625C121.922 429.047 126.562 422.297 118.125 421.453C109.688 420.187 107.578 419.766 102.516 416.391C99.5625 414.281 97.0312 414.281 97.0312 416.391Z" fill="#40406B"/>
<path d="M132.047 439.594C126.141 449.719 127.406 454.781 135.422 452.672C145.969 449.719 150.188 442.969 141.328 442.969C137.531 442.969 135.844 440.859 137.109 438.75C138.375 436.219 138.797 434.531 137.531 434.531C136.266 434.531 134.156 437.062 132.047 439.594Z" fill="#40406B"/>
<path d="M248.906 488.109C253.547 491.484 256.078 496.547 254.812 499.078C253.125 502.031 253.547 502.875 255.234 500.766C257.344 499.078 259.453 494.016 260.297 489.797C261.141 483.891 258.609 481.781 250.594 481.781C240.469 481.781 240.047 482.203 248.906 488.109Z" fill="#40406B"/>
<path d="M309.656 512.578C318.938 519.75 326.531 521.016 323.156 515.109C321.891 513 316.406 510.469 311.344 509.203C302.063 506.672 302.063 507.094 309.656 512.578Z" fill="#40406B"/>
<path d="M348.047 521.437C338.766 526.922 327.375 531.562 322.734 531.562C314.719 531.984 299.531 540.422 299.531 545.062C299.531 547.594 321.469 545.906 332.016 542.531C338.766 540.422 372.516 509.625 366.609 510.891C365.766 510.891 357.328 515.953 348.047 521.437Z" fill="#40406B"/>
<path d="M93.6562 201.234C94.5 204.609 83.5312 251.859 75.9375 275.063C73.8281 282.656 73.8281 286.875 76.3594 286.875C78.8906 286.875 79.3125 288.563 78.0469 291.094C76.7812 293.203 77.625 295.312 79.7344 295.312C82.2656 295.312 84.375 291.094 84.375 285.609C84.375 280.547 88.1719 261.984 92.8125 244.688C104.203 203.344 104.203 201.656 97.875 199.547C94.9219 198.281 92.8125 199.125 93.6562 201.234Z" fill="#6B6B6B"/>
<path d="M305.859 358.594C307.547 361.125 304.594 362.391 298.688 361.547C292.781 361.125 288.984 363.234 287.719 367.875C286.875 372.516 288.984 375.469 292.781 375.469C296.578 375.469 299.531 373.359 299.531 370.828C299.531 368.297 302.484 367.031 305.859 368.719C310.078 370.406 312.188 368.297 312.188 362.812C312.188 358.172 310.078 354.375 307.547 354.375C305.438 354.375 304.594 356.062 305.859 358.594Z" fill="#6B6B6B"/>
<path d="M64.9687 367.875C57.375 379.688 59.4844 384.75 68.7656 377.156C73.8281 372.938 75.9375 372.094 72.9844 375.047C67.9219 380.953 70.0312 392.344 75.9375 392.344C81 392.344 78.4687 372.094 72.9844 366.609C69.6094 363.234 67.5 363.656 64.9687 367.875Z" fill="#6B6B6B"/>
<path d="M333.281 385.594C339.609 391.922 338.344 396.562 331.172 396.562C327.375 396.562 318.516 399.516 310.922 403.312L297.422 410.484L305.438 401.203C317.25 388.547 311.766 386.859 297.422 398.672C287.297 406.687 286.453 408.797 292.359 409.219C296.578 409.219 299.109 410.906 297.422 413.437C296.156 415.547 292.781 416.391 289.828 415.125C286.875 414.281 280.969 415.547 277.172 418.922C270 423.984 270.422 424.406 280.125 423.984C286.031 423.562 294.469 420.609 298.266 416.812C317.25 400.359 343.406 396.141 364.5 405.422C377.578 411.328 390.234 442.125 386.438 457.734C384.75 463.641 385.594 468.281 388.125 468.281C394.031 468.281 390.656 410.062 383.906 395.719C378 383.484 365.344 378.844 342.563 380.531C333.703 380.953 330.75 383.062 333.281 385.594Z" fill="#6B6B6B"/>
<path d="M61.1719 392.344C59.9062 394.453 55.6875 394.875 51.4687 393.609C47.6719 392.344 45.5625 392.344 46.8281 394.031C52.3125 399.937 67.5 400.359 67.5 394.031C67.5 387.281 64.9687 386.437 61.1719 392.344Z" fill="#6B6B6B"/>
<path d="M46.4062 414.281C51.4688 437.063 59.0625 449.719 67.9219 450.141C72.1406 450.563 75.9375 449.297 75.9375 446.766C75.9375 444.656 72.9844 442.969 69.1875 442.969C65.3906 442.969 64.125 440.859 65.8125 437.906C67.5 434.953 67.0781 434.531 64.125 436.219C58.2188 439.594 50.625 425.672 50.625 411.75C50.625 405.844 48.9375 400.781 46.8281 400.781C44.7187 400.781 44.2969 406.688 46.4062 414.281Z" fill="#6B6B6B"/>
<path d="M73.8281 409.641C72.5625 411.328 76.3594 414.281 82.2656 415.969C96.6094 419.766 99.1406 416.813 86.0625 410.484C80.5781 407.953 75.0938 407.531 73.8281 409.641Z" fill="#6B6B6B"/>
<path d="M418.5 417.656C418.5 425.672 419.344 429.047 420.609 424.828C421.453 421.031 421.453 414.281 420.609 410.063C419.344 406.266 418.5 409.641 418.5 417.656Z" fill="#6B6B6B"/>
<path d="M147.656 429.891C139.641 431.156 135 433.688 137.531 435.375C142.172 438.328 172.969 432 172.969 428.203C172.969 425.672 168.328 426.094 147.656 429.891Z" fill="#6B6B6B"/>
<path d="M84.375 435.797C84.375 439.172 88.1719 442.969 92.8125 444.234C97.4531 445.5 101.25 444.656 101.25 442.547C101.25 440.859 97.4531 437.062 92.8125 434.531C86.0625 431.156 84.375 431.156 84.375 435.797Z" fill="#6B6B6B"/>
<path d="M164.531 447.609C164.531 449.719 166.641 450.563 169.594 448.875C172.547 447.188 172.969 447.609 171.281 450.563C169.594 453.516 158.203 455.625 145.547 455.625C129.516 455.625 122.766 457.313 120.656 461.953C117.703 469.547 105.047 470.391 97.875 463.219C94.9219 460.266 92.8125 459.844 92.8125 461.953C92.8125 464.063 90.2812 462.375 87.3281 457.734C83.1094 452.672 80.5781 451.828 78.4687 454.781C76.7812 457.734 77.625 459.844 79.7344 459.844C82.2656 459.844 84.375 463.641 84.375 468.281C84.375 472.922 86.4844 476.719 89.0156 476.719C91.125 476.719 91.9688 474.609 90.2812 471.656C88.1719 468.281 89.4375 467.859 94.5 469.547C98.7188 471.234 102.938 472.5 104.203 472.5C105.469 472.5 104.203 475.453 101.25 478.828C97.0312 483.891 97.0312 485.156 102.516 485.156C106.734 485.156 108.422 487.688 107.156 491.063C105.891 494.016 110.953 502.453 118.125 510.047C125.297 517.219 129.938 523.125 127.828 523.125C126.141 523.547 131.203 526.922 139.219 531.563C155.25 540.422 198.281 543.375 198.281 535.359C198.281 533.25 196.594 532.406 194.063 533.672C191.531 535.359 189.844 519.328 189.844 488.953C189.844 448.875 189 442.547 183.938 446.766C179.719 450.141 177.188 450.563 175.078 447.188C171.703 441.703 164.531 441.703 164.531 447.609ZM183.094 501.609C182.25 502.453 181.406 501.188 181.406 498.656C181.406 495.703 179.297 493.594 177.188 493.594C174.234 493.594 174.234 496.125 177.188 501.609C180.562 508.359 179.719 511.313 172.125 516.375C163.688 522.281 162 522.281 154.406 515.531C146.812 509.625 146.391 509.203 151.031 515.531C155.25 521.016 155.25 522.703 151.031 524.813C148.078 526.078 153.562 526.922 163.688 526.078C174.234 525.234 180.984 526.5 180.141 529.453C176.766 537.891 151.875 532.828 141.328 521.438C135.844 515.531 128.25 510.469 124.031 510.469C119.391 510.469 118.125 508.359 119.813 503.719C121.5 499.922 120.234 494.016 117.703 491.063C113.906 486 116.438 485.156 133.312 485.156C148.922 485.156 152.297 483.891 147.656 480.516C143.016 477.141 145.969 476.719 159.469 477.563C169.594 478.406 177.188 477.141 177.609 474.609C178.031 472.5 179.719 477.141 181.406 485.156C183.516 493.172 184.359 500.766 183.094 501.609Z" fill="#6B6B6B"/>
<path d="M331.594 463.219C330.328 465.328 332.016 468.703 335.813 469.969C339.188 471.234 341.297 473.766 340.031 475.875C339.188 477.563 340.031 481.781 342.563 485.156C345.938 490.641 346.359 490.219 344.672 484.734C343.406 480.938 344.672 475.453 347.203 472.5C351 468.281 351 467.859 347.203 469.969C344.672 471.234 340.453 469.547 338.344 465.75C335.813 461.531 333.281 460.688 331.594 463.219Z" fill="#6B6B6B"/>
<path d="M219.375 476.719C204.609 481.359 195.75 486.844 194.906 491.062C192.375 502.031 197.859 519.75 202.5 516.797C208.828 513 207.562 505.406 201.656 508.781C197.437 510.891 197.437 510.469 201.234 506.25C205.031 502.031 207.562 502.031 213.047 507.937C220.641 515.109 234.141 517.219 229.922 510.469C228.656 507.937 230.344 506.25 233.719 506.25C241.312 506.25 242.156 499.078 236.672 489.797C233.719 485.156 235.406 481.359 241.312 475.875C251.859 467.016 249.75 467.016 219.375 476.719ZM236.25 497.391C236.25 501.187 226.125 506.25 218.953 506.25C216.844 506.25 215.156 504.141 215.156 501.609C215.156 499.078 218.109 497.812 221.484 499.5C224.859 500.766 227.812 499.922 227.812 497.812C227.812 495.281 229.922 493.594 232.031 493.594C234.562 493.594 236.25 495.281 236.25 497.391Z" fill="#6B6B6B"/>
<path d="M303.75 476.297C303.75 478.406 302.906 483.047 301.641 486.422C300.375 489.375 301.641 492.328 305.016 492.328C308.813 492.328 310.078 488.953 308.813 482.203C307.125 472.5 303.75 468.703 303.75 476.297Z" fill="#6B6B6B"/>
<path d="M250.172 494.859C254.812 498.656 256.078 502.453 253.547 503.719C251.016 505.406 250.594 509.625 251.859 513C253.969 518.484 254.812 518.484 257.766 513.844C263.672 504.562 261.984 498.234 252.281 493.594C243.422 489.375 243 489.375 250.172 494.859Z" fill="#6B6B6B"/>
<path d="M64.5469 268.313C62.0156 278.859 61.5938 286.031 63.2813 283.922C67.0781 280.125 73.8281 248.906 70.875 248.906C69.6094 248.906 67.0781 257.766 64.5469 268.313Z" fill="#969696"/>
<path d="M46.4062 351C46.4062 354.797 48.5156 359.437 51.0469 360.703C58.2188 365.344 58.6406 361.547 52.3125 352.687C47.25 345.516 46.4062 345.516 46.4062 351Z" fill="#969696"/>
<path d="M458.156 376.313C459 378 453.516 381.375 445.922 384.328C430.312 389.813 425.672 402.891 440.437 399.094C462.797 392.766 468.703 392.766 453.516 398.672C437.906 404.578 436.219 406.688 435.375 420.609C434.531 429.047 432.844 437.906 431.578 440.438C429.891 442.969 432 442.547 435.797 439.594C439.594 436.219 444.656 434.953 447.187 436.641C449.297 437.906 451.406 437.484 451.406 434.953C451.406 432.844 457.312 429.891 464.062 428.203C471.234 426.516 476.719 422.719 476.719 419.344C476.719 415.969 478.828 413.438 481.781 413.438C484.312 413.438 485.578 412.172 483.891 410.906C482.625 409.641 472.5 411.328 461.531 415.125C438.75 422.719 435.375 423.141 441.281 418.078C443.391 416.391 453.937 412.172 465.328 409.219C479.672 405.422 485.156 401.625 485.156 396.141C485.156 390.656 483.047 388.969 477.984 390.656C470.812 392.766 470.812 392.766 477.984 388.125C489.797 380.531 486.422 373.359 470.812 373.359C462.797 373.359 457.312 374.625 458.156 376.313Z" fill="#969696"/>
<path d="M523.125 379.688C523.125 382.219 520.172 383.906 516.797 383.906C513 383.906 511.734 386.438 513.422 391.078C515.109 395.719 516.797 396.563 518.062 393.188C518.906 390.234 521.859 389.391 523.969 390.656C526.5 392.344 527.344 391.5 525.656 388.969C524.391 386.438 526.5 383.906 530.297 383.063C537.469 381.797 537.469 381.375 530.719 378.844C526.5 377.156 523.125 377.578 523.125 379.688Z" fill="#969696"/>
<path d="M586.406 381.797C586.406 385.594 583.875 386.859 579.234 385.594C573.328 383.906 572.906 384.328 577.125 387.281C580.5 389.391 582.609 392.344 582.609 394.031C581.344 402.047 582.609 405.422 586.406 402.891C588.516 401.625 588.938 397.406 587.672 393.609C585.984 389.391 586.828 387.703 589.359 389.391C592.313 391.5 593.156 389.391 591.891 383.906C589.359 374.203 586.406 372.938 586.406 381.797Z" fill="#969696"/>
<path d="M92.8125 477.562C92.8125 480.937 95.3438 486.844 98.2969 491.062C103.359 497.812 104.203 497.812 104.203 491.906C104.203 488.109 102.516 485.156 100.406 485.156C98.2969 485.156 97.4531 483.469 99.1406 481.359C100.406 479.25 99.5625 476.297 97.0312 474.609C94.9219 473.344 92.8125 474.609 92.8125 477.562Z" fill="#969696"/>
<path d="M498.656 172.969C494.438 179.719 494.438 181.406 499.5 181.406C503.297 181.406 507.516 189.844 510.469 203.344C513.422 215.578 518.484 230.344 521.859 235.828C529.453 247.641 524.391 253.125 504.141 253.125C497.391 253.125 488.531 255.234 485.156 257.766C480.094 261.141 481.359 261.984 490.641 260.297C504.984 258.188 505.828 264.094 491.484 266.625C484.734 268.313 479.25 266.625 477.141 262.406C474.188 257.766 469.969 256.922 457.313 259.875C448.031 261.563 437.484 262.828 433.688 262.406C429.469 261.984 426.094 263.672 426.094 266.203C426.094 269.156 421.031 270.422 413.859 269.156C402.469 267.469 401.625 268.313 405.422 275.484C409.219 282.234 412.594 283.078 431.578 280.125C457.313 276.328 466.172 276.328 482.203 279.703C488.953 280.969 492.75 280.547 491.484 278.016C489.797 275.906 494.016 274.219 500.766 274.219C526.922 274.219 531.141 270.844 529.453 251.438C526.922 222.328 513 164.531 508.359 164.531C505.828 164.531 501.609 168.328 498.656 172.969Z" fill="#C1ECC1"/>
<path d="M216.422 361.547C208.828 364.5 209.672 371.25 217.688 371.25C221.063 371.25 223.172 369.562 221.906 367.453C220.219 365.344 221.906 362.391 224.438 361.547C227.391 360.281 228.234 359.438 225.703 359.438C223.594 359.438 218.953 360.281 216.422 361.547Z" fill="#C1ECC1"/>
<path d="M356.484 160.313C354.797 162.844 359.016 164.953 365.766 164.953C374.625 165.375 375.469 166.219 369.141 167.484C364.5 168.75 359.859 171.281 358.594 172.969C354.797 179.297 364.5 240.469 369.141 240.469C371.672 240.469 379.266 245.953 386.016 253.125C395.297 262.828 401.625 265.781 413.016 264.938L428.203 264.516L413.438 262.828C404.578 261.563 394.453 256.078 386.859 248.063C375.047 235.828 374.625 234.563 376.313 197.859C377.156 169.594 376.313 159.891 372.094 158.203C363.656 155.25 359.438 155.672 356.484 160.313Z" fill="#ECECC1"/>
<path d="M488.531 158.625C487.266 159.891 467.437 162 444.656 163.266C421.453 164.531 402.047 166.219 400.781 167.484C398.25 170.016 486 168.328 492.75 165.797C495.281 164.531 497.812 162 497.812 159.891C497.812 155.672 491.906 154.828 488.531 158.625Z" fill="#ECECC1"/>
<path d="M560.672 161.578C562.781 163.687 570.797 164.531 578.391 163.687C592.313 162.422 592.313 162 575.016 160.312C565.313 159.047 558.563 159.469 560.672 161.578Z" fill="#ECECC1"/>
<path d="M149.766 164.531C146.813 169.594 150.609 169.594 162.422 164.531C170.438 161.156 170.438 160.734 161.578 160.734C156.516 160.312 151.031 162 149.766 164.531Z" fill="#ECECC1"/>
<path d="M493.172 175.078C492.75 176.344 492.328 178.453 491.906 180.141C488.531 194.484 483.469 202.5 477.984 202.5C473.766 202.5 472.5 205.031 474.187 209.25C475.453 212.625 475.031 214.312 472.5 213.047C469.969 211.781 468.281 213.469 468.281 216.844C468.281 220.219 470.391 224.438 472.5 225.703C475.031 226.969 476.719 226.125 476.719 223.594C476.719 221.062 478.828 220.219 480.937 221.484C483.469 222.75 485.156 220.219 485.156 215.578C485.156 200.391 496.547 205.875 507.937 226.125C521.016 249.328 520.594 247.641 511.734 250.172C506.25 251.438 505.828 252.281 510.469 252.703C513.844 252.703 519.328 251.438 522.703 249.328C527.344 246.375 527.344 244.266 521.859 235.828C518.484 230.344 513.422 215.578 510.469 203.344C507.094 189.422 503.297 181.406 499.078 181.406C495.703 181.406 494.437 179.297 495.703 177.188C496.969 174.656 497.391 172.969 496.125 172.969C494.859 172.969 493.172 173.812 493.172 175.078Z" fill="#ECECC1"/>
<path d="M229.078 188.578C232.875 189.422 239.625 189.422 243.844 188.578C247.641 187.312 244.266 186.469 236.25 186.469C228.234 186.469 224.859 187.312 229.078 188.578Z" fill="#ECECC1"/>
<path d="M415.969 189C414.703 191.109 418.5 191.953 423.984 190.688C432 189.422 435.375 191.109 438.75 198.703L442.969 208.828L441.703 198.281C441.281 190.266 437.906 187.312 429.469 186.469C423.563 185.625 417.234 186.891 415.969 189Z" fill="#ECECC1"/>
<path d="M405.844 203.344C393.609 215.578 404.578 243 422.297 245.531C438.75 248.063 442.969 244.688 445.5 225.281C447.188 213.469 446.766 210.516 443.813 214.734C440.016 220.219 437.906 219.375 431.578 211.359L423.563 201.656L418.5 212.625C413.859 223.172 414.281 223.594 426.516 223.594C442.547 223.594 440.859 232.875 424.828 234.984C415.969 236.25 412.594 234.141 409.641 226.969C407.531 221.063 407.531 213.891 410.063 209.672C415.125 199.969 412.594 196.594 405.844 203.344Z" fill="#ECECC1"/>
<path d="M192.797 223.594C191.531 229.078 192.797 232.031 196.172 232.031C199.547 232.031 201.656 228.234 201.234 223.594C200.813 218.953 199.547 215.156 197.859 215.156C196.172 215.156 194.063 218.953 192.797 223.594Z" fill="#ECECC1"/>
<path d="M466.172 256.078C470.812 257.344 475.875 260.719 477.562 263.672C479.25 266.625 485.156 267.891 491.484 266.625C505.828 264.094 504.984 258.188 490.641 260.297C481.359 261.984 480.094 261.141 485.156 257.766C490.219 254.391 487.687 253.547 474.609 253.547C465.328 253.969 461.531 255.234 466.172 256.078Z" fill="#ECECC1"/>
<path d="M435.797 260.297C439.594 261.141 446.344 261.141 450.562 260.297C454.359 259.031 450.984 258.188 442.969 258.188C434.953 258.188 431.578 259.031 435.797 260.297Z" fill="#ECECC1"/>
<path d="M88.5938 322.734C88.5938 326.109 91.5469 329.062 94.9219 329.062C98.2969 329.062 102.516 329.062 104.203 329.484C105.891 329.484 108 327.375 109.266 324C110.109 321.047 109.266 319.781 107.578 321.469C105.891 323.156 100.828 322.734 96.6094 320.203C90.2813 317.25 88.5938 317.672 88.5938 322.734Z" fill="#ECECC1"/>
<path d="M402.891 130.359C404.156 132.891 414.281 135 424.828 135C448.875 135 447.188 132.891 420.188 129.094C406.266 126.984 400.781 127.406 402.891 130.359Z" fill="#ECECEC"/>
<path d="M553.078 141.75C552.656 153.562 559.828 159.047 577.969 161.578L592.734 163.266L576.703 163.687C562.359 164.531 561.094 165.375 565.313 172.969C568.688 179.297 572.906 180.984 583.453 179.719C596.953 178.031 596.953 178.031 595.688 195.75C594.844 205.031 596.531 218.531 599.063 225.703L604.125 238.359L613.828 226.125C621.844 216 622.688 212.625 618.891 202.078C616.359 195.328 612.563 189.844 610.875 189.844C609.188 189.844 607.5 186.891 607.5 183.516C607.5 176.344 595.688 155.672 588.516 151.031C586.406 149.344 578.391 148.922 570.797 150.187C559.406 151.875 557.297 151.031 555.609 142.594C553.922 133.734 553.922 133.312 553.078 141.75Z" fill="#ECECEC"/>
<path d="M445.5 143.859C422.297 145.547 401.625 149.344 399.094 151.875C392.344 158.625 383.906 156.937 383.484 148.5C383.484 144.281 382.219 143.437 380.953 146.391C380.109 149.344 375.891 151.875 372.094 151.875C365.766 152.297 366.188 153.141 373.359 158.625C380.109 164.109 390.656 164.953 432.422 163.266C460.266 162 486.422 159.891 490.641 158.203C494.859 156.516 497.812 156.937 497.812 159.891C497.812 162.422 495.281 164.953 492.75 165.375C489.797 165.375 485.578 166.219 483.047 166.641C480.938 167.484 455.625 167.906 427.359 168.328L375.469 168.75V202.5C375.469 234.141 376.312 237.094 388.125 249.75L400.781 262.828L445.922 257.766C501.188 251.437 518.906 248.906 518.906 247.219C518.906 246.375 513.844 237.094 507.938 226.125C496.547 205.875 485.156 200.391 485.156 215.578C485.156 220.219 483.469 222.75 480.938 221.484C478.828 220.219 476.719 221.062 476.719 223.594C476.719 226.125 475.031 226.969 472.5 225.703C470.391 224.437 468.281 220.219 468.281 216.844C468.281 213.469 469.969 211.781 472.5 213.047C475.031 214.312 475.453 212.625 474.188 209.25C472.5 205.031 473.766 202.5 477.984 202.5C483.469 202.5 490.219 191.109 491.484 180.984C491.484 179.719 494.859 175.5 499.078 171.281C502.875 167.062 505.406 162 503.719 159.891C502.453 157.781 504.141 154.828 507.938 153.562C511.312 152.297 515.109 148.5 516.375 145.125C518.906 138.375 513 138.375 445.5 143.859ZM444.234 204.609C447.609 222.328 445.078 240.891 438.328 245.109C429.469 250.594 410.062 243.844 405.422 233.719C398.672 218.531 399.516 212.203 410.062 197.859C423.984 178.875 439.172 182.25 444.234 204.609Z" fill="#ECECEC"/>
<path d="M144.703 146.391C141.75 147.234 139.219 151.031 139.219 153.984C139.219 159.469 112.219 166.641 106.312 162.844C101.25 159.891 81.4219 178.031 78.0469 188.578C75.5156 198.281 75.5156 198.281 126.141 198.281C153.984 198.281 177.609 199.969 178.875 201.656C180.141 203.766 178.031 223.172 174.656 245.109C170.859 267.047 167.063 291.094 166.219 299.109L164.109 313.031L141.328 311.344L118.547 309.234L126.984 321.469C133.312 330.328 134.156 333.281 129.938 333.281C126.562 333.281 120.656 326.953 117.281 318.937C111.797 307.969 106.734 304.172 95.3438 302.062C87.3281 300.375 78.4688 296.156 76.3594 291.937C73.4062 286.875 72.1406 286.453 71.7188 290.672C71.7188 299.109 59.0625 287.719 59.0625 279.281C59.0625 273.375 58.2188 273.375 51.8906 279.703C46.4062 285.187 43.875 295.312 43.4531 317.672C43.0312 334.547 41.7656 361.125 40.9219 377.578C39.6562 395.297 40.5 403.734 42.1875 398.672C44.2969 394.031 45.9844 380.109 45.9844 367.453C46.4062 345.937 46.8281 345.094 54 351C61.1719 357.75 86.0625 371.25 90.7031 371.25C91.9688 371.25 92.8125 368.297 92.8125 364.922C92.8125 361.547 95.3438 358.594 98.2969 358.594C102.094 358.594 101.672 357.328 97.4531 354.797C93.2344 351.844 93.2344 350.578 97.0312 348.047C99.9844 346.359 103.359 346.781 105.047 349.312C106.312 351.844 113.062 355.219 119.391 356.484C126.984 358.594 130.359 361.547 129.094 365.344C127.828 368.297 129.094 371.672 132.047 372.516C135 373.359 135.844 375.469 134.578 376.734C131.203 380.953 104.625 372.094 100.406 366.187C97.875 361.969 97.0312 362.391 97.0312 367.453C97.0312 372.094 103.359 375.891 116.438 379.266L135.844 384.328L134.156 405.844L132.047 427.359L159.047 424.828C179.297 422.719 185.625 423.562 184.359 427.359C183.516 430.312 184.359 435.797 186.469 440.437C189 444.656 191.953 456.047 193.641 465.75L196.172 483.469L221.484 475.875C246.375 468.281 247.219 467.437 257.344 443.812C262.828 430.734 272.531 415.547 278.438 410.484C297 393.609 329.484 379.687 349.734 379.687H368.297L365.766 300.375C364.078 256.5 361.547 211.781 360.281 201.234C357.75 183.516 356.484 181.828 344.25 180.141L331.172 178.453L345.516 178.031C356.484 177.187 359.016 175.922 356.906 170.437C355.219 166.641 356.484 160.734 359.438 157.359C363.656 152.297 354.797 151.875 294.891 154.406C256.922 156.094 214.312 157.781 200.391 158.203C186.469 158.625 169.594 161.156 163.266 164.109C148.922 169.594 146.391 170.016 149.344 164.953C151.031 162.844 149.344 159.891 146.812 158.625C143.016 157.359 143.859 154.828 149.344 150.187C157.359 143.437 155.25 141.75 144.703 146.391ZM319.359 179.719C318.094 180.984 294.469 182.25 267.047 181.828C230.344 181.406 213.891 183.094 205.031 187.734C188.156 196.594 185.625 195.328 200.391 185.625C211.359 178.453 220.219 177.187 267.469 177.187C297.422 177.187 321.047 178.453 319.359 179.719ZM294.891 192.375C295.734 193.219 289.406 194.062 280.125 194.484C271.266 194.906 259.031 196.594 253.125 198.281C246.375 200.391 258.609 202.078 288.984 202.5C335.812 203.344 339.188 204.187 312.188 208.406L297.422 210.937L298.688 234.562C301.219 275.062 297.844 284.766 277.172 292.781C267.047 296.578 257.766 303.328 255.234 308.812C252.703 314.297 246.797 318.937 241.734 319.781C233.719 321.047 232.031 324 232.031 337.922C232.031 346.781 233.719 354.375 235.406 354.375C237.516 354.375 238.781 358.594 238.781 363.656C238.359 369.562 240.891 373.359 245.953 373.781C251.438 374.625 251.859 374.203 246.797 372.516C234.562 368.719 241.734 356.484 256.5 356.062C264.094 355.641 269.156 356.484 268.312 357.75C267.047 358.594 267.891 363.234 270.422 367.453C273.797 374.203 271.266 375.891 250.172 382.219C219.797 391.078 222.328 391.078 216 379.266L210.516 369.141L211.781 379.687C212.203 385.594 210.938 390.234 208.828 390.234C206.297 390.234 205.031 385.594 205.875 380.531C206.719 374.203 205.453 371.672 202.922 373.359C200.391 374.625 198.281 373.781 198.281 371.672C198.281 369.141 202.078 364.922 206.297 361.969C212.625 358.172 213.891 353.953 212.203 344.25C210.938 337.078 207.984 328.641 205.453 325.687C202.5 322.312 203.344 320.625 207.984 320.625C211.359 320.625 216.422 317.672 219.375 314.297C224.016 308.812 222.75 307.969 213.469 307.969C203.344 307.969 202.5 306.703 202.5 288.984C202.5 278.437 200.812 270 199.125 270C197.016 270 196.594 261.562 198.281 251.016C200.391 237.937 199.547 232.031 196.172 231.187C192.375 230.344 191.953 226.969 195.328 219.375C197.438 213.469 199.547 206.297 199.969 203.344C200.812 191.953 224.016 186.047 259.453 188.578C278.016 189.844 294.047 191.531 294.891 192.375ZM105.891 318.937C108.422 321.891 109.266 326.109 108 328.641C103.781 335.391 89.4375 328.641 87.75 318.516C86.0625 310.922 87.3281 309.656 93.2344 310.922C97.4531 312.187 102.938 315.562 105.891 318.937ZM316.406 358.594C316.406 367.875 309.234 373.359 294.469 377.156C286.031 378.844 282.656 378 282.656 374.625C283.078 368.297 295.312 350.578 295.312 356.484C295.312 358.594 297.422 358.172 299.531 356.062C306.281 349.312 316.406 351 316.406 358.594Z" fill="#ECECEC"/>
<path d="M72.1406 207.562C72.1406 211.359 70.4531 218.109 69.1875 222.328C67.0781 229.5 67.0781 229.5 71.7188 222.328C74.25 218.109 75.5156 211.781 74.6719 207.562C72.9844 201.234 72.5625 201.234 72.1406 207.562Z" fill="#ECECEC"/>
<path d="M485.578 281.391C485.578 283.5 491.484 289.406 499.078 294.891L512.578 305.438L500.344 291.937C487.266 278.016 485.156 276.328 485.578 281.391Z" fill="#ECECEC"/>
<path d="M468.281 287.297C468.281 289.406 469.969 290.672 472.078 289.406C474.188 288.141 477.141 291.516 478.406 297.422C480.094 303.328 483.047 307.969 485.156 307.969C491.062 307.969 490.641 305.016 482.625 293.203C475.453 282.234 468.281 279.281 468.281 287.297Z" fill="#ECECEC"/>
<path d="M454.781 291.516C457.312 295.312 459 299.109 457.734 300.375C456.469 301.641 458.156 305.016 461.531 307.547C472.922 316.828 472.5 305.016 460.687 294.891C454.781 289.406 451.828 287.719 454.781 291.516Z" fill="#ECECEC"/>
<path d="M434.953 299.531C438.75 305.016 444.234 310.5 447.609 311.766C452.25 313.031 451.828 311.344 446.766 303.75C442.969 298.266 437.484 292.781 434.109 291.516C429.469 290.25 429.891 291.937 434.953 299.531Z" fill="#ECECEC"/>
<path d="M413.438 305.859C418.922 311.766 424.828 315.141 426.938 313.875C432 310.5 423.563 300.797 413.016 298.266C404.156 295.734 404.156 296.156 413.438 305.859Z" fill="#ECECEC"/>
<path d="M399.516 312.188C400.781 317.25 404.578 322.313 407.953 323.578C418.078 327.375 418.078 322.313 407.531 312.609L396.984 302.906L399.516 312.188Z" fill="#ECECEC"/>
<path d="M413.859 336.234C413.859 340.875 415.125 341.719 416.391 338.344C417.234 335.813 420.187 334.125 422.297 335.813C424.406 337.078 426.094 335.813 426.094 333.703C426.094 331.172 423.141 329.063 419.766 329.063C416.391 329.063 413.437 332.438 413.859 336.234Z" fill="#ECECEC"/>
<path d="M653.906 339.188C653.906 345.094 656.016 350.156 658.125 350.156C660.656 350.156 662.344 346.359 662.344 342.141C662.344 337.5 660.656 332.438 658.125 331.172C655.594 329.484 653.906 333.281 653.906 339.188Z" fill="#ECECEC"/>
<path d="M44.2969 461.531C44.2969 469.547 46.8281 478.828 50.2031 481.781C54.8438 486.422 55.2656 486 51.4688 478.828C48.9375 474.188 48.0938 464.906 49.3594 458.578C50.625 452.25 49.7813 447.188 48.0938 447.188C45.9844 447.188 44.2969 453.938 44.2969 461.531Z" fill="#ECECEC"/>
<path d="M144.703 483.891C132.469 484.734 122.344 487.687 122.344 490.219C122.344 492.328 125.297 493.594 128.672 491.906C132.469 490.641 135 491.906 135 496.125C135 499.5 133.312 501.187 130.781 499.922C128.672 498.656 126.562 498.234 126.562 499.5C126.562 504.141 153.984 513.422 161.578 511.312C165.797 510.047 171.281 504.562 173.391 499.078C177.187 488.953 175.5 480.094 169.594 481.781C167.906 482.203 156.516 483.047 144.703 483.891ZM162.844 494.016C164.109 496.547 163.687 500.344 161.156 502.875C158.625 505.406 156.516 503.719 154.828 498.234C152.719 488.953 157.781 486 162.844 494.016Z" fill="#ECECEC"/>
<path d="M76.7813 507.094C85.6406 515.531 108.422 527.344 114.75 526.922C117.703 526.922 115.594 524.812 110.109 522.703C104.625 520.594 94.9219 515.109 88.5938 510.469C75.5156 501.187 67.9219 499.078 76.7813 507.094Z" fill="#ECECEC"/>
</g>
<defs>
<filter id="filter0_i_34_256" x="0" y="0" width="679" height="679" filterUnits="userSpaceOnUse" color-interpolation-filters="sRGB">
<feFlood flood-opacity="0" result="BackgroundImageFix"/>
<feBlend mode="normal" in="SourceGraphic" in2="BackgroundImageFix" result="shape"/>
<feColorMatrix in="SourceAlpha" type="matrix" values="0 0 0 0 0 0 0 0 0 0 0 0 0 0 0 0 0 0 127 0" result="hardAlpha"/>
<feOffset dx="4" dy="4"/>
<feGaussianBlur stdDeviation="5"/>
<feComposite in2="hardAlpha" operator="arithmetic" k2="-1" k3="1"/>
<feColorMatrix type="matrix" values="0 0 0 0 0 0 0 0 0 0 0 0 0 0 0 0 0 0 0.25 0"/>
<feBlend mode="normal" in2="shape" result="effect1_innerShadow_34_256"/>
</filter>
<clipPath id="clip0_34_256">
<rect width="675" height="675" fill="white"/>
</clipPath>
</defs>
</svg>
