<svg width="183" height="254" viewBox="0 0 183 254" fill="none" xmlns="http://www.w3.org/2000/svg">
<path fill-rule="evenodd" clip-rule="evenodd" d="M140.185 6.81113C139.355 8.07745 138.586 9.3825 137.88 10.7218L134.024 17.6729L100.274 34.2458L98.2679 35.2354C78.8556 45.191 65.1739 63.8862 61.067 85.7051C60.9476 86.3013 60.8401 86.9332 60.661 87.9705L60.6491 88.0539L60.2909 90.1166C57.0834 107.959 48.3326 124.341 35.2794 136.938L25.6807 146.357C19.6636 152.271 14.8165 157.04 11.1872 161.141C7.48617 165.314 4.5015 169.416 2.7107 174.114C0.35219 180.32 -0.485068 187.001 0.268847 193.596C1.02276 200.192 3.34597 206.512 7.04444 212.029C9.86196 216.202 13.7062 219.492 18.2549 222.688C22.708 225.811 28.5102 229.305 35.6853 233.621L44.1976 238.748C51.3727 243.064 57.1749 246.545 62.0101 249.001C66.9288 251.505 71.6327 253.377 76.635 253.842C83.1984 254.437 89.8051 253.343 95.8244 250.663C101.844 247.983 107.075 243.807 111.018 238.533C114.051 234.539 115.949 229.806 117.561 224.416C119.149 219.111 120.677 212.374 122.575 203.969L125.619 190.603L126.085 188.564C130.223 170.962 139.82 155.115 153.508 143.281L153.58 143.221L155.263 141.719C171.476 126.97 180.048 105.306 178.639 83.1298L178.46 80.8406L175.332 41.8884L179.57 34.2339C180.263 33.0058 181.003 31.6585 181.552 30.4424C182.185 29.0593 182.877 27.1755 182.985 24.8744C183.124 21.8068 182.311 18.7711 180.657 16.1825C179.583 14.5771 178.219 13.1861 176.633 12.0811C175.463 11.2603 174.256 10.4925 173.016 9.77993L163.286 3.92578C162.002 3.12905 160.687 2.38134 159.346 1.68427C157.528 0.753525 155.544 0.190329 153.508 0.0269817C150.288 -0.166738 147.092 0.686634 144.399 2.45926C142.717 3.61792 141.281 5.09682 140.173 6.81113M140.053 34.6273L157.627 45.2029L160.588 82.1759C160.647 82.939 160.695 83.404 160.707 83.7736L148.112 87.9586C144.419 89.1915 140.475 89.4796 136.641 88.7964C132.808 88.1132 129.207 86.4805 126.169 84.0478C120.019 79.1272 112.586 76.0714 104.75 75.2429C96.9137 74.4145 89.0042 75.8483 81.9596 79.374L81.2433 79.7317C86.0285 66.7529 95.7204 56.1662 108.237 50.2463L140.053 34.6273Z" fill="#C8142E"/>
</svg>
