<svg width="180" height="238" viewBox="0 0 180 238" fill="none" xmlns="http://www.w3.org/2000/svg">
<path d="M15.7598 93.0269L41.1629 220.339C42.407 225.703 70.3705 241.035 108.36 237.387C146.369 233.69 170.879 213.286 171.061 207.784L171.623 77.9623C152.848 90.9835 123.689 99.0958 95.2597 101.843C66.8545 104.589 36.6694 102.212 15.7598 93.0269ZM124.636 15.8476L113.428 5.61729C108.976 0.420532 104.635 -0.182992 96.373 0.615578L74.7921 2.70143C66.5416 3.49886 62.3847 4.92374 59.0222 10.8758L49.9811 23.0632C20.2015 31.283 -0.411561 47.4441 0.589784 57.8043L0.783446 59.808C2.54577 78.0416 44.0834 88.9451 93.551 84.1639C143.03 79.3816 181.711 60.7248 179.949 42.4912L179.755 40.4875C178.754 30.1273 155.439 18.212 124.636 15.8476ZM114.919 50.4539L100.781 35.8791L77.2078 38.1575L66.1464 55.1679L46.1096 57.1045C46.1096 57.1045 65.5257 28.8057 68.1176 24.9744C70.095 22.0471 72.2813 20.7889 75.2515 20.5018L99.3311 18.1744C102.313 17.8862 104.7 18.7024 107.201 21.1968C110.467 24.462 134.955 48.5173 134.955 48.5173L114.919 50.4539Z" fill="#BDBDBD"/>
</svg>
