<svg width="241" height="172" viewBox="0 0 241 172" fill="none" xmlns="http://www.w3.org/2000/svg">
<path d="M155.033 0L21.1247 71.4645L0 127.975L3.71357 129.954L82.6124 172L241 87.5916L221.617 36.2404L155.033 0ZM216.148 48.9272L229.04 83.0832L176.383 111.145L210.555 51.8925L216.148 48.9267V48.9272ZM170.158 73.3001L135.887 132.726L114.493 144.128L151.559 83.1557L170.158 73.2995V73.3001ZM26.7456 83.8332L41.2292 91.5089L13.4983 119.272L26.7456 83.8332ZM134.988 91.9376L98.0135 152.757L98.147 152.839L89.312 157.548L92.2873 114.567L134.988 91.9376ZM50.1026 96.2101L58.8118 100.826L27.7781 131.895L19.0859 127.263L50.1026 96.2101ZM82.729 113.708L79.5591 159.491L51.7831 144.688L82.729 113.708Z" fill="#FFEB3B"/>
</svg>
