<svg width="230" height="226" viewBox="0 0 230 226" fill="none" xmlns="http://www.w3.org/2000/svg">
<path d="M225.643 51.2224L118.72 0.712002C117.688 0.230424 116.561 -0.0127457 115.423 0.000514588C114.284 0.0137749 113.163 0.283125 112.143 0.788603C111.123 1.29408 110.229 2.02273 109.529 2.92054C108.828 3.81835 108.339 4.86231 108.096 5.97505C108.072 6.05754 99.5182 45.8191 86.8158 85.4569C82.4854 99.0435 77.6354 112.473 72.5709 124.27L86.3044 130.754C102.801 92.4606 115.866 39.5991 120.782 18.4562L213.716 62.3012C210.862 74.7823 203.546 105.387 193.755 135.943C187.429 155.741 180.022 175.514 172.433 189.827C165.092 204.593 156.283 211.852 154.312 210.879C142.599 211.127 134.367 200.468 128.824 186.808C126.493 180.798 124.68 174.599 123.405 168.28C122.349 163.182 122.028 159.981 122.003 159.981C121.876 158.69 121.414 157.455 120.661 156.398C119.909 155.341 118.893 154.501 117.714 153.959L10.8158 103.473C9.59872 102.895 8.2497 102.652 6.90736 102.768C5.56503 102.884 4.27777 103.355 3.17785 104.133C2.08293 104.915 1.21564 105.975 0.664868 107.202C0.114094 108.43 -0.100356 109.782 0.0434943 111.12C0.109481 111.5 1.65192 126.382 7.85465 141.948C12.1603 152.837 19.46 165.195 31.3293 171.439L138.194 222.007L138.244 221.908C142.88 224.342 148.142 225.926 154.303 226C169.126 225.035 177.209 212.24 185.796 196.921C210.54 149.983 229.677 59.9831 229.825 59.6531C230.191 57.9869 229.979 56.2456 229.223 54.7162C228.468 53.1867 227.214 51.9602 225.668 51.2389L225.643 51.2224Z" fill="#0072CE"/>
</svg>
