<svg width="539" height="190" viewBox="0 0 539 190" fill="none" xmlns="http://www.w3.org/2000/svg">
<path d="M471.218 188.466C470.407 187.617 469.906 187.558 470.101 188.282C470.272 188.915 469.892 189.308 469.252 189.093C467.356 188.536 466.966 182.043 468.664 177.899C469.468 175.839 470.067 173.738 469.921 173.195C469.75 172.562 470.081 171.988 470.623 171.842C471.076 171.72 471.135 171.219 470.603 170.683C470.07 170.147 470.136 170.032 470.867 170.224C471.598 170.415 472.266 169.653 472.353 168.174C472.488 166.876 473.532 164.267 474.656 162.315C475.69 160.387 476.295 158.672 475.926 158.383C475.582 158.185 475.972 157.11 476.814 155.913C477.656 154.716 478.7 152.106 479.142 150.144C479.674 148.157 480.666 146.435 481.48 146.216C482.318 146.087 482.83 145.464 482.659 144.831C482.124 142.841 486.47 135.558 488.55 134.998C491.264 134.267 490.701 133.255 487.44 132.677C484.271 132.075 481.598 132.6 481.282 133.947C481.108 134.382 478.926 135.648 476.4 136.717C473.874 137.785 467.002 141.09 461.101 144.037C455.199 146.984 448.007 150.181 445.095 151.257C442.183 152.332 439.434 153.654 439.013 154.252C438.592 154.851 435.432 156.089 432.151 156.876C428.78 157.686 425.711 158.901 425.38 159.475C424.984 160.164 422.837 160.839 419.911 161.141C417.165 161.395 414.723 162.053 414.302 162.651C413.881 163.25 407.917 165.243 401.066 167.185L388.54 170.751L388.522 168.524C388.477 167.275 388.38 166.913 388.279 167.619C388.07 168.646 387.503 168.701 385.714 167.825C383.491 166.774 383.491 166.774 384.448 168.166C385.846 170.118 385.338 172.195 383.814 170.859C382.913 170.034 382.732 170.083 382.976 170.987C383.219 171.892 382.858 171.989 381.48 171.196C379.413 170.006 377.892 170.124 378.258 171.481C378.404 172.024 378.954 172.264 379.587 172.094C380.13 171.948 380.45 172.056 380.251 172.4C379.723 173.319 376.577 172.807 376.901 171.847C377.05 171.321 376.723 170.827 376.083 170.611C375.558 170.462 375.154 170.765 375.276 171.217C375.446 171.85 372.649 172.991 367.945 174.258C360.798 176.182 360.321 176.213 359.267 174.459C358.467 172.928 357.531 172.695 354.973 173.287C352.802 173.871 351.97 174.386 352.437 175.037C352.903 175.688 352.301 176.335 350.944 176.7C349.135 177.187 348.627 176.742 348.066 174.661C347.677 173.214 347.287 171.766 347.19 171.404C347.068 170.952 347.357 170.583 347.809 170.461C349.528 169.999 349.26 169.003 347.339 168.356C345.854 167.883 345.311 168.029 345.506 168.753C345.652 169.296 345.092 169.737 344.27 169.57C343.474 169.494 342.889 169.845 343.011 170.298C343.157 170.84 343.707 171.081 344.159 170.959C344.702 170.813 345.453 172.163 345.916 173.882C346.379 175.6 346.316 177.17 345.773 177.316C345.321 177.438 344.977 177.239 345.06 176.829C345.119 176.328 344.309 175.479 343.094 174.932C341.946 174.271 341.101 174.014 341.174 174.285C341.247 174.556 340.492 174.275 339.483 173.77C337.186 172.448 336.282 172.691 336.045 174.696C335.951 175.788 336.229 176.101 336.946 175.52C337.506 175.078 338.171 175.385 338.414 176.289C338.78 177.646 338.171 177.907 333.296 178.54C330.304 178.958 327.238 179.104 326.689 178.864C326.073 178.738 324.618 178.742 323.599 178.919C318.272 179.674 313.467 179.124 313.578 177.736C313.721 176.825 313.213 176.379 312.308 176.623C311.494 176.842 311.007 177.555 311.202 178.279C311.713 180.179 306.028 179.963 303.651 177.983C302.659 177.183 301.518 176.908 301.049 177.325C300.513 177.858 300.725 178.286 301.57 178.543C302.325 178.825 301.946 179.218 300.499 179.608C298.147 180.241 298.122 180.151 299.131 178.133C300.231 176.09 300.116 176.024 298.561 176.734C297.68 177.068 296.47 177.976 295.843 178.533C295.085 179.319 294.879 179.277 295.161 178.522C295.353 177.791 295.14 177.363 294.598 177.51C294.145 177.631 293.724 178.23 293.714 178.912C293.637 179.709 292.618 179.886 290.154 179.385C288.307 179.009 286.031 178.846 285.036 179.113C284.131 179.357 283.31 179.19 283.164 178.647C283.042 178.195 283.373 177.621 283.825 177.499C284.368 177.353 284.608 176.803 284.438 176.17C284.218 175.356 283.947 175.429 283.352 176.462C282.294 178.299 279.037 179.176 279.577 177.575C279.81 176.639 279.243 176.695 277.646 177.61C275.102 178.974 261.936 177.279 262.451 175.588C262.601 175.063 262.249 174.478 261.609 174.263C261.084 174.113 260.68 174.416 260.826 174.958C261.143 176.135 257.009 176.277 256.216 175.132C255.913 174.729 254.73 174.659 253.464 175C252.016 175.39 251.376 175.174 251.494 174.172C251.647 172.578 248.297 172.025 247.823 173.511C247.698 174.127 245.102 173.855 241.539 172.874C238.182 171.934 235.078 171.218 234.535 171.364C234.083 171.485 233.624 171.221 233.502 170.769C233.38 170.316 232.329 170.017 231.171 170.038C229.897 169.993 227.959 169.641 226.769 169.185C224.619 168.406 224.595 168.315 226.613 166.802C228.45 165.337 228.245 165.295 225.037 166.353C223.071 166.979 220.851 167.383 220.21 167.167C218.93 166.736 218.596 163.333 219.532 161.043C219.946 160.059 219.776 159.425 218.972 158.963C218.168 158.5 217.747 159.098 217.824 160.824C217.827 162.278 217.347 163.378 216.755 163.343C214.866 163.173 214.174 161.322 215.712 160.908C216.616 160.664 216.94 159.704 216.648 158.618C216.209 156.99 216.004 156.948 215.072 158.169C214.386 159.227 213.934 159.349 213.739 158.625C213.593 158.082 213.109 157.727 212.566 157.873C212.114 157.995 211.856 158.841 212.076 159.655C212.709 162.007 211.046 160.514 210.183 158.03C209.793 156.582 210.026 155.646 210.907 155.312C211.63 155.118 210.966 154.811 209.463 154.634C207.483 154.488 206.397 154.78 205.802 155.813C205.002 156.805 204.55 156.927 203.788 156.259C203.231 155.632 203.297 155.518 204.028 155.709C204.758 155.9 205.162 155.598 205.04 155.145C204.894 154.603 204.411 154.248 203.868 154.394C203.415 154.516 202.793 154.004 202.598 153.28C202.159 151.652 201.049 151.854 199.992 153.691C199.066 155.298 199.324 156.975 200.28 155.845C200.66 155.451 201.317 155.371 201.71 155.751C201.989 156.064 201.756 157 200.997 157.786C199.282 159.703 193.287 158.698 193.499 156.603C193.617 155.601 192.887 155.41 190.715 155.994C189.177 156.408 187.994 156.338 188.144 155.813C188.384 155.263 187.967 154.794 187.285 154.783C186.578 154.682 186.129 153.736 186.168 152.076C186.126 149.759 186.283 149.62 188.607 149.964C190.635 150.291 190.938 150.695 190.392 151.909C190.02 152.689 190.173 153.618 190.632 153.882C191.091 154.146 191.561 153.729 191.596 153.137C191.791 151.339 193.015 151.203 195.656 152.723C197.493 153.781 198.356 153.743 199.518 152.654C201.216 151.033 201.262 149.759 199.571 149.244C198.955 149.119 198.642 149.397 198.763 149.85C199.129 151.206 196.481 151.822 194.734 150.74C193.93 150.277 193.301 149.38 193.402 148.673C193.436 148.082 192.928 147.636 192.18 147.741C191.547 147.911 189.87 148.169 188.374 148.377C185.743 148.698 182.567 152.755 184 154.115C184.369 154.404 184.376 154.79 184.104 154.863C183.2 155.107 180.83 153.513 179.644 151.989C179.129 151.157 177.848 150.726 176.853 150.994C175.949 151.237 173.708 150.482 172.052 149.376C170.371 148.179 168.903 147.41 168.837 147.525C168.44 148.214 162.615 145.319 162.348 144.323C162.201 143.781 161.537 143.474 160.813 143.669C160.089 143.864 159.442 143.262 159.314 142.424C159.046 141.428 158.332 140.941 157.428 141.185C155.347 141.745 146.6 138.084 143.872 135.52C143.225 134.918 140.681 133.759 138.211 132.872C135.765 132.075 132.943 130.603 131.927 129.713C130.911 128.822 127.418 126.658 124.227 124.897C121.012 123.046 118.274 121.163 118.103 120.53C117.933 119.897 116.785 119.236 115.619 118.87C113.156 118.369 107.891 115.032 102.31 110.519C100.303 108.828 98.048 107.301 97.359 106.904C96.604 106.622 94.1615 104.757 91.8337 102.958C89.3912 101.093 86.1206 98.6749 84.3982 97.6832C82.742 96.5767 81.2668 95.4215 81.1937 95.1501C81.0963 94.7883 79.5062 93.5669 77.6447 92.4187C75.6684 91.2043 73.6608 89.5133 73.1459 88.6817C72.6309 87.8501 70.3032 86.0511 68.1216 84.795C65.8252 83.4728 64.162 81.98 64.3117 81.4546C64.4613 80.9292 62.2901 78.9911 59.3953 77.2479C56.5665 75.3898 53.4107 73.0376 52.4365 71.9416C51.4622 70.8455 48.9466 68.7091 46.8729 67.1329C44.7087 65.581 41.7999 63.0653 40.3177 61.5238C35.2239 56.2976 34.0687 55.2503 31.9776 53.9698C30.8051 53.2182 29.8552 52.2126 29.9561 51.5063C29.9909 50.9148 28.8114 49.777 27.2283 48.9419C24.5213 47.5361 21.5881 44.9299 17.2981 40.1665C16.1847 38.9139 14.1701 36.8366 12.7609 35.5666C11.3761 34.387 9.86957 32.7551 9.31287 32.1288C8.84663 31.4781 7.84805 30.2916 7.17654 29.5992C6.48066 28.8163 5.82654 27.8281 5.68041 27.2853C5.53429 26.7425 4.37913 25.6952 3.09175 24.8775C-1.45932 22.0277 -0.714595 15.4237 4.26105 14.0842C5.16572 13.8407 5.76767 13.1935 5.62155 12.6507C5.47542 12.1079 6.21656 11.6173 7.28476 11.6208C8.35294 11.6243 11.1504 10.4831 13.4226 9.1923C15.7851 7.8771 17.678 6.97943 17.751 7.25083C17.8241 7.52224 18.2938 7.10471 18.781 6.39145C19.3586 5.6538 21.2688 4.46037 23.186 3.65317C25.0371 2.96079 26.6098 1.95528 26.669 1.45423C26.662 1.06801 28.1513 0.473076 29.9188 0.191278C32.1631 -0.121824 33.4192 0.219171 34.2612 1.54486C34.8005 2.46691 36.2583 3.91788 37.4309 4.66948C40.9068 7.12953 45.8858 12.2897 43.7773 11.3049C42.128 10.5846 41.9715 10.7238 42.3124 11.9904C42.5073 12.7141 43.7459 13.3509 45.1099 13.3718C46.5643 13.3683 47.6882 13.939 47.9561 14.9341C48.1996 15.8388 49.0764 16.5729 49.8975 16.7399C50.6943 16.8165 51.6199 17.7316 51.8878 18.7268C52.1557 19.7219 52.8272 20.4143 53.37 20.2682C53.9128 20.1221 54.4034 20.8632 54.3999 21.9314C54.4451 23.1805 54.887 23.7407 55.7916 23.4972C56.5154 23.3023 56.9746 23.5668 56.825 24.0922C56.6754 24.6176 57.2077 25.1534 58.095 25.2057C58.9822 25.2579 59.6781 26.0407 59.6016 26.8375C59.4345 27.6587 60.1722 28.2363 61.3552 28.3059C63.1297 28.4103 63.8256 29.1932 64.2117 31.7089C64.2674 32.276 64.9563 32.6727 65.6801 32.4778C67.4894 31.9908 69.9458 34.6282 69.6674 36.8377C69.5317 38.1355 69.7857 38.3582 70.7739 37.7041C72.2318 36.6324 75.3876 38.9846 80.1265 44.6945C80.8711 45.6583 82.4299 46.403 83.4981 46.4065C84.6567 46.3856 85.6901 46.9806 85.9093 47.7948C86.1285 48.609 86.7513 49.1205 87.2036 48.9987C87.7464 48.8526 88.2301 49.2075 88.4006 49.8408C88.571 50.474 90.095 51.8102 91.8417 52.8923C94.0233 54.1485 94.4652 54.7087 93.2821 54.639C91.9843 54.5033 91.6955 54.8721 92.0852 56.3196C92.4261 57.5861 93.0002 57.9167 93.8075 57.3113C94.5243 56.7302 95.5994 57.1199 96.6467 58.4874C97.6209 59.5834 98.9083 60.4011 99.5416 60.2307C100.808 59.8897 102.927 62.715 102.544 64.1764C102.395 64.7018 103.912 65.6517 105.947 66.3651C108.073 67.054 110.213 68.5155 110.777 69.528C111.455 70.6066 112.193 71.1842 112.572 70.7911C113.397 69.8899 119.468 75.144 119.315 76.7376C119.238 77.5344 119.879 77.7501 121.211 77.2943C122.725 76.7899 123.504 77.1622 124.148 78.8323C124.67 80.0501 126.563 81.6751 128.713 82.4545C130.682 83.2827 133.323 84.8032 134.503 85.9411C135.592 87.1032 137.321 88.4811 138.215 88.9196C139.593 89.7129 139.509 90.1235 137.878 91.63C135.644 93.7838 135.797 94.7128 138.194 95.3287C139.541 95.6454 140.397 95.2209 141.214 93.9335C141.966 92.7609 142.575 92.5 142.721 93.0428C142.867 93.5856 143.573 93.6865 144.224 93.2203C145.031 92.6149 145.059 91.6371 144.283 90.1966C143.368 88.5995 143.427 88.0985 144.405 88.1263C145.202 88.2029 145.849 88.8049 145.814 89.3964C145.894 90.054 146.239 90.2523 146.684 89.7443C147.154 89.3268 147.05 88.5787 146.632 88.109C146.124 87.6636 146.322 87.3192 147.119 87.3957C147.916 87.4723 148.66 88.4361 148.772 89.5704C148.994 91.839 151.733 93.7215 153.904 93.1369C155.804 92.6255 155.96 89.9637 154.165 88.7007C151.402 86.7278 153.8 87.3437 157.293 89.508C160.762 91.5818 161.635 93.3841 158.427 91.9192C156.319 90.9345 155.609 91.9018 156.942 93.9686C157.759 95.2038 158.827 95.2073 162.536 94.2088C165.16 93.5025 168.02 93.3147 169.005 93.7288C170.564 94.4734 170.588 94.5639 169.109 94.4768C168.131 94.449 167.456 94.8248 167.578 95.2771C167.724 95.8199 168.545 95.9869 169.45 95.7434C170.717 95.4024 170.856 95.559 169.875 96.5993C168.893 97.6397 169.057 97.8867 170.911 98.6488C172.101 99.1046 172.888 99.8631 172.533 100.347C172.268 100.806 171.405 100.844 170.717 100.448C168.994 99.4559 162.366 101.143 162.707 102.41C162.853 102.953 163.674 103.12 164.579 102.876C166.569 102.34 171.287 104.369 170.602 105.427C170.428 105.862 171.412 106.276 172.915 106.453C175.01 106.666 175.633 107.177 175.546 108.656C175.424 110.726 177.042 110.97 177.64 108.868C177.898 108.023 178.375 107.991 179.342 108.701C180.08 109.279 181.958 110.131 183.559 110.671C185.57 111.293 186.356 112.052 186.287 113.235C186.127 114.442 186.53 114.14 187.588 112.302L189.043 109.776L186.179 108.51C184.645 107.856 183.472 107.104 183.67 106.76C184.043 105.98 190.591 108.68 190.334 109.526C190.118 110.166 194.912 111.398 198.667 111.649C200.441 111.753 200.556 111.819 199.328 113.023C198.413 113.948 197.303 114.15 195.956 113.834C192.967 113.183 192.564 113.486 193.813 115.963C194.474 117.337 194.495 118.496 193.754 118.987C193.169 119.338 193.106 120.907 193.496 122.355C194.317 125.044 196.989 127.042 197.825 125.458C198.089 124.999 197.671 124.529 197.08 124.495C194.985 124.282 194.676 120.97 196.575 120.458C197.932 120.093 198.148 119.453 197.536 118.259C197.087 117.313 197.097 116.631 197.713 116.756C198.263 116.996 198.844 117.713 199.039 118.437C199.234 119.161 199.832 119.582 200.285 119.46C200.827 119.314 201.276 120.26 201.255 121.624C201.283 123.169 201.683 123.935 202.407 123.74C203.04 123.569 203.141 122.863 202.675 122.212C201.186 120.285 203.103 119.477 206.328 120.647C208.068 121.342 209.916 121.718 210.368 121.597C210.911 121.45 211.697 122.209 212.17 123.246C212.644 124.283 213.545 125.107 214.341 125.184C215.138 125.26 215.361 125.007 214.968 124.627C214.665 124.224 214.693 123.246 215.18 122.533C215.932 121.36 216.137 121.402 216.436 122.874C216.614 123.893 216.182 125.174 215.351 125.688C213.103 127.07 213.969 128.486 216.332 127.171C217.435 126.583 218.75 126.423 219.258 126.868C219.675 127.338 220.472 127.414 220.852 127.021C221.206 126.538 221.641 126.712 221.763 127.164C221.909 127.707 222.664 127.989 223.478 127.769C224.202 127.575 225.615 127.776 226.419 128.239C230.225 130.125 231.391 130.49 232.386 130.223C233.924 129.809 239.717 132.227 239.393 133.187C239.094 134.238 242.01 134.617 242.991 133.577C243.37 133.184 243.927 133.81 244.244 134.986C244.682 136.615 244.912 136.747 245.343 135.466C245.709 134.301 245.956 134.137 246.199 135.042C246.394 135.766 246.944 136.006 247.528 135.654C248.022 135.327 249.755 135.637 251.338 136.472C258.402 140.004 258.402 140.004 258.875 138.518C259.24 137.352 259.445 137.394 259.762 138.57C260.006 139.475 261.154 140.136 262.608 140.133C263.948 140.063 264.842 140.502 264.692 141.027C264.543 141.552 264.912 141.841 265.364 141.719C265.907 141.573 266.213 140.909 266.067 140.366C265.962 139.618 266.463 139.677 267.455 140.477C268.422 141.187 270.729 141.827 272.66 141.793C276.161 141.82 277.782 143.518 275.879 145.098C275.319 145.54 276.042 145.345 277.392 144.594C281.491 142.52 284.41 141.831 284.727 143.007C284.873 143.55 285.339 144.201 285.799 144.465C286.168 144.754 286.714 146.062 286.874 147.377C287.145 149.827 287.145 149.827 287.629 147.659C288.147 144.9 290.492 143.881 290.402 146.428C290.44 147.29 290.663 147.036 290.913 145.805C291.23 144.458 291.801 143.334 292.253 143.213C293.429 142.896 293.749 145.526 292.695 146.295C292.11 146.647 291.985 147.263 292.444 147.527C293.018 147.858 293.934 146.932 294.546 145.603C295.621 143.47 296.025 143.167 297.945 143.815C299.202 144.156 300.235 144.751 300.332 145.112C300.454 145.565 301.16 145.666 301.975 145.447C303.241 145.106 303.314 145.377 302.702 146.706C302.089 148.035 302.26 148.669 303.178 149.197C304.097 149.726 304.567 149.309 304.72 147.715C304.866 145.735 305.113 145.572 306.557 146.25C307.476 146.779 309.661 146.967 311.404 146.595C313.172 146.313 315.061 146.484 315.454 146.863C315.962 147.308 316.644 147.319 317.089 146.811C317.559 146.393 318.652 146.487 319.685 147.082C320.694 147.587 321.877 147.656 322.256 147.263C322.702 146.755 324.723 146.696 326.661 147.048C328.599 147.399 330.506 147.274 330.976 146.856C331.933 145.726 337.469 146.467 340.224 148.053C341.372 148.715 342.58 148.875 342.754 148.44C343.043 148.071 342.625 147.601 342.034 147.566C339.848 147.378 340.231 145.917 342.524 145.785C343.683 145.764 345.704 145.705 346.954 145.66C348.318 145.681 349.396 145.002 349.654 144.157C349.953 143.106 350.224 143.033 350.444 143.847C350.59 144.39 351.369 144.762 352.093 144.567C352.997 144.324 353.512 145.155 353.923 147.761C354.229 149.619 354.587 150.59 354.622 149.999C354.723 149.292 355.638 148.367 356.724 148.075C358.237 147.57 358.304 147.455 357.03 147.41C355.009 147.469 354.396 146.276 355.969 145.27C358.258 143.684 367.663 142.219 369.476 143.186C370.92 143.865 371.759 143.736 372.83 142.671C373.745 141.746 375.826 141.186 379.64 140.935C382.566 140.633 389.594 139.711 395.193 138.883C405.141 137.272 407.639 137.181 405.506 138.629C403.801 139.864 405.885 140.758 408.78 139.979C410.861 139.419 411.306 138.911 410.562 137.947C409.981 137.23 410.064 136.82 410.819 137.101C411.459 137.317 412.176 136.736 412.458 135.981C412.823 134.816 413.004 134.767 413.248 135.671C413.467 136.486 413.961 136.159 414.935 134.732C415.993 132.895 417.91 132.088 426.209 129.757C432.041 127.993 436.209 127.259 436.331 127.711C436.477 128.254 437.027 128.494 437.479 128.372C438.022 128.226 438.213 127.495 438.018 126.772C437.823 126.048 438.467 125.195 439.372 124.952C440.277 124.708 441.442 125.074 441.999 125.7C442.465 126.351 443.269 126.813 443.812 126.667C444.354 126.521 444.389 125.93 443.881 125.484C443.21 124.792 443.481 124.719 444.72 125.355C445.704 125.77 446.477 125.756 446.355 125.303C445.965 123.856 459.368 118.501 460.524 119.549C461.286 120.217 461.442 120.077 461.199 119.173C461.028 118.54 461.474 118.032 462.385 118.174C463.182 118.251 463.767 117.899 463.645 117.447C463.499 116.904 463.697 116.56 464.174 116.529C464.56 116.522 466.018 115.45 467.427 114.197L469.974 111.765L467.211 109.792C464.473 107.91 460.451 106.664 458.46 107.2C457.827 107.37 456.655 106.619 455.771 105.498C454.887 104.378 453.443 103.7 452.629 103.919C451.724 104.162 451.216 103.717 451.293 102.92C451.436 102.008 450.124 101.1 447.817 100.46C445.83 99.9277 444.132 99.0265 443.986 98.4837C443.864 98.0313 443.109 97.7495 442.295 97.9687C440.124 98.5532 429.668 92.1508 429.059 89.8891C428.767 88.8035 429.355 87.3839 430.542 86.3853C431.572 85.5259 432.522 84.0089 432.616 82.9163C432.643 81.9386 433.131 81.2253 433.656 81.375C434.206 81.6151 434.519 81.3367 434.397 80.8844C434.275 80.432 435.824 79.336 437.807 78.414C440.309 77.2554 441.001 76.5839 440.065 76.3507C438.9 75.9854 439.007 75.6653 440.333 74.8233C441.321 74.1691 442.675 72.3494 443.329 70.815C444.463 68.1811 444.62 68.0419 447.181 68.9049C450.472 69.9592 452.125 69.6113 450.914 67.9968C450.448 67.3461 450.459 66.6641 450.82 66.5667C451.273 66.445 451.986 66.9321 452.543 67.5584C453.009 68.2091 452.999 68.891 452.546 69.0128C451.008 69.4268 451.989 70.9091 453.83 70.8987C455.104 70.944 455.037 71.0588 453.524 71.5633C450.834 72.3844 450.525 74.1171 452.981 74.232C455.733 74.3643 456.575 73.1674 455.796 70.2724L455.138 67.8299L457.943 69.5975C460.977 71.4973 463.35 74.5454 463.458 76.7479C463.472 77.5203 463.84 77.8091 464.105 77.3498C464.345 76.8001 466.168 77.0854 468.137 77.9136C471.847 79.4377 473.802 79.4934 473.412 78.0459C473.291 77.5936 472.24 77.2943 471.081 77.3152C469.898 77.2456 469.143 76.9637 469.317 76.5288C470.069 75.3562 476.06 77.4301 475.883 78.9332C475.782 79.6395 476.199 80.1093 476.742 79.9632C477.285 79.817 477.615 79.2429 477.469 78.7001C477.323 78.1573 477.793 77.7398 478.59 77.8164C479.387 77.8929 480.062 77.5172 480.096 76.9256C480.232 75.6278 487.605 77.4268 491.008 79.6155C492.41 80.4993 494.035 81.1291 494.668 80.9586C495.482 80.7394 495.556 81.0108 495.009 82.2252C494.439 83.349 494.675 83.8675 496.004 84.4799C498.113 85.4646 498.478 86.8216 496.589 86.6511C495.768 86.484 495.207 86.9259 495.354 87.4687C495.597 88.3734 496.279 88.3838 500.423 87.5593C501.262 87.4305 503.224 87.8725 504.807 88.7076C506.366 89.4522 507.967 89.9916 508.419 89.8698C508.781 89.7724 510.266 90.2456 511.801 90.8998C513.335 91.5539 515.635 91.808 516.902 91.467C518.259 91.1017 519.696 91.394 520.252 92.0203C520.719 92.671 522.156 92.9633 523.422 92.6223C524.779 92.257 526.237 91.1854 526.766 90.2668C528.287 87.6259 531.213 87.3233 534.32 89.4945C538.116 92.0624 539.306 97.5635 536.992 101.582C536.794 101.927 536.286 104.004 535.826 106.262C535.457 108.496 534.253 112.313 533.342 114.693C532.43 117.073 531.56 119.247 531.428 119.477C531.32 119.797 530.426 119.359 529.434 118.558C528.467 117.848 527.736 117.657 527.907 118.29C528.053 118.833 528.724 119.526 529.25 119.675C531.146 120.232 530.812 121.874 528.881 121.909C527.246 121.961 527.023 122.215 527.865 123.541C528.543 124.62 528.509 125.211 527.604 125.455C526.88 125.649 525.965 126.575 525.527 127.469C525.046 128.569 523.943 129.157 522.76 129.087C521.191 129.024 520.969 129.278 521.852 130.399C522.506 131.387 522.291 132.027 521.122 132.73C520.199 133.269 519.531 134.031 519.653 134.484C519.775 134.936 519.239 135.468 518.515 135.663C517.792 135.858 517.256 136.39 517.353 136.752C517.475 137.204 516.609 138.311 515.422 139.31C513.453 141.004 511.521 143.561 508.522 148.638C507.819 149.991 505.791 152.187 504.225 153.579C502.544 154.904 501.372 156.675 501.567 157.399C502.005 159.027 499.552 162.889 496.612 164.942C495.31 165.875 494.493 167.162 494.687 167.886C494.882 168.61 494.402 169.709 493.661 170.2C492.854 170.805 491.723 172.371 491.135 173.79C490.547 175.21 489.433 176.48 488.71 176.675C487.986 176.87 487.565 177.468 487.687 177.92C487.833 178.463 487.297 178.996 486.573 179.19C485.216 179.556 481.994 182.364 481.448 183.578C481.058 184.653 475.16 189.055 473.713 189.444C473.08 189.615 471.89 189.159 471.218 188.466ZM399.385 163.465C399.312 163.194 398.606 163.093 397.882 163.288C397.068 163.507 396.744 164.467 397.036 165.553C397.475 167.181 397.68 167.223 398.515 165.64C399.044 164.721 399.458 163.737 399.385 163.465ZM418.992 158.09C417.945 156.722 415.133 157.091 415.523 158.539C415.669 159.081 416.4 159.273 417.124 159.078C417.847 158.883 418.602 159.165 418.773 159.798C418.919 160.341 419.263 160.539 419.437 160.104C419.726 159.736 419.483 158.831 418.992 158.09ZM369.507 171.412C369.312 170.688 368.508 170.225 367.785 170.42C365.432 171.053 366.643 172.668 369.667 172.727C369.782 172.793 369.702 172.135 369.507 171.412ZM333.154 174.407C332.959 173.683 331.974 173.269 330.979 173.537C329.622 173.902 329.368 173.679 329.939 172.556C330.725 170.791 329.733 169.991 327.381 170.624C326.476 170.868 325.655 170.701 325.509 170.158C325.387 169.706 324.904 169.351 324.361 169.497C323.909 169.619 323.797 171.007 324.187 172.455C324.918 175.169 326.452 175.823 326.706 173.523C326.783 172.726 327.719 172.959 329.424 174.247C332.416 176.352 333.689 176.397 333.154 174.407ZM380.708 156.074C380.381 155.58 379.462 155.051 378.87 155.017C378.188 155.006 378.015 155.441 378.62 156.248C379.692 157.706 381.689 157.557 380.708 156.074ZM384.448 153.03C383.582 151.614 382.663 151.085 381.511 151.492C379.546 152.118 379.817 154.568 381.717 154.056C382.44 153.861 383.425 154.276 383.916 155.017C385.429 157.035 385.788 155.483 384.448 153.03ZM407.517 146.82C406.786 144.106 403.175 142.943 402.214 145.142C401.734 146.242 401.863 147.08 402.903 148.062C403.69 148.82 404.215 148.97 404.044 148.337C403.874 147.703 404.434 147.261 405.231 147.338C406.052 147.505 406.56 147.95 406.41 148.476C406.261 149.001 406.63 149.29 407.082 149.168C407.625 149.022 407.834 147.996 407.517 146.82ZM369.003 157.285C368.102 156.46 365.683 157.208 365.951 158.204C366.097 158.746 366.985 158.799 367.865 158.464C368.86 158.197 369.281 157.598 369.003 157.285ZM414.048 142.248C413.926 141.795 413.491 141.621 412.949 141.767C412.496 141.889 412.287 142.916 412.604 144.092C413.042 145.72 413.248 145.762 413.679 144.481C413.937 143.636 414.145 142.61 414.048 142.248ZM344.361 161.978C344.01 161.394 343.801 159.898 343.871 158.715C344.006 157.417 343.624 156.355 343.098 156.206C342.458 155.99 341.828 155.092 341.56 154.097C341.268 153.012 340.645 152.5 340.085 152.942C339.5 153.293 339.219 154.049 339.455 154.567C339.782 155.061 339.313 155.479 338.516 155.402C337.695 155.235 337.134 155.677 337.28 156.22C337.427 156.762 338.001 157.093 338.544 156.947C338.996 156.825 339.299 157.229 339.083 157.869C338.891 158.6 338.439 158.721 337.955 158.366C336.268 156.783 332.308 156.491 331.581 157.754C330.325 159.936 330.993 161.696 332.771 160.732C333.603 160.217 334.49 160.27 334.636 160.812C334.758 161.265 335.374 161.39 336.024 160.924C336.585 160.482 338.07 160.955 339.225 162.003C341.397 163.941 345.735 163.84 344.361 161.978ZM386.511 150.243C386.63 149.241 386.261 148.952 385.676 149.303C384.441 150.121 384.278 152.397 385.454 152.08C385.906 151.958 386.459 151.13 386.511 150.243ZM308.021 170.791C306.925 169.243 304.048 169.726 304.486 171.355C304.73 172.259 305.69 172.583 306.776 172.291C307.861 171.998 308.373 171.376 308.021 170.791ZM349.299 157.253C347.98 155.959 348.004 156.049 348.376 157.793C348.937 159.873 350.551 161.185 350.614 159.616C350.649 159.024 350.085 158.012 349.299 157.253ZM370.154 154.355C370.52 153.19 367.604 152.81 366.623 153.851C366.244 154.244 366.233 154.926 366.626 155.305C367.642 156.196 369.813 155.611 370.154 154.355ZM355.617 154.776C353.519 153.109 351.853 152.685 352.169 153.861C352.34 154.494 356.859 156.867 357.493 156.697C357.674 156.648 356.863 155.799 355.617 154.776ZM325.589 163.248C325.443 162.705 324.761 162.695 324.02 163.185C322.9 164.069 322.761 163.912 323.439 162.468C323.853 161.484 324.594 160.993 324.987 161.372C326.602 162.684 329.664 161.084 330.074 158.645C330.603 155.204 330.269 154.323 328.787 155.304C328.07 155.885 327.43 155.67 327.187 154.765C326.967 153.951 327.43 153.147 328.154 152.952C328.878 152.757 329.414 152.225 329.316 151.863C329.048 150.868 324.375 150.089 322.204 150.673C321.209 150.941 320.297 150.798 320.151 150.256C320.029 149.803 319.546 149.448 319.094 149.57C318.641 149.692 318.679 150.555 319.243 151.567C320.109 152.983 319.887 153.237 317.66 153.255C314.866 153.328 314.675 154.058 317.201 155.513C318.718 156.463 319.079 156.365 320.005 154.758C321.105 152.716 323.318 151.926 325.443 152.615C326.609 152.98 326.706 153.342 325.979 154.605C325.45 155.524 324.73 157.173 324.455 158.314C323.898 160.21 323.808 160.235 323.766 157.917C323.603 155.148 320.878 154.038 320.148 156.369C319.567 158.175 316.696 159.045 316.282 157.507C316.087 156.783 315.579 156.338 315.036 156.484C314.584 156.605 313.961 156.094 313.742 155.28C313.352 153.832 309.762 151.306 310.127 152.663C310.224 153.025 309.494 152.834 308.502 152.033C307.625 151.299 306.508 151.115 306.063 151.623C305.593 152.04 305.092 151.981 304.97 151.529C304.824 150.986 304.341 150.631 303.798 150.777C302.079 151.24 303.551 153.463 305.899 153.898C307.632 154.208 307.796 154.455 306.62 154.772C304.925 155.325 304.779 157.305 306.498 156.842C306.95 156.72 307.319 157.009 307.145 157.444C306.912 158.38 302.545 159.458 301.421 158.888C301.052 158.599 299.803 158.644 298.627 158.961C297.089 159.375 296.825 159.834 297.576 161.184C298.655 163.028 299.838 163.098 300.419 161.292C300.586 160.471 301.063 160.44 301.825 161.108C302.357 161.643 304.222 161.723 306.056 161.327C307.775 160.864 309.911 160.871 310.715 161.334C311.404 161.731 312.635 161.981 313.359 161.786C313.992 161.616 314.386 161.995 314.236 162.52C314.111 163.136 314.57 163.401 315.294 163.206C316.108 162.987 316.619 162.364 316.498 161.912C316.108 160.464 320.318 162.047 321.438 163.686C322.444 165.259 326.028 164.876 325.589 163.248ZM394.163 144.787C393.836 144.293 393.196 144.077 392.743 144.199C392.291 144.321 391.846 144.829 391.811 145.42C391.776 146.012 392.44 146.318 393.255 146.099C394.069 145.88 394.49 145.281 394.163 144.787ZM281.825 173.672C281.386 172.043 283.237 171.351 285.189 172.475C285.878 172.871 286.765 172.924 286.939 172.489C287.691 171.316 284.302 169.9 281.376 170.202C279.765 170.345 277.719 170.314 276.807 170.171C275.419 170.06 275.13 170.429 275.52 171.876C275.812 172.962 276.393 173.678 276.936 173.532C277.388 173.41 277.74 173.995 277.663 174.792C277.479 175.909 278.119 176.124 279.838 175.662C281.285 175.272 282.044 174.486 281.825 173.672ZM416.272 135.731C415.353 135.202 415.106 135.365 415.374 136.36C415.861 138.17 417.378 139.12 417.465 137.641C417.566 136.935 416.96 136.127 416.272 135.731ZM401.118 141.071C400.997 140.619 400.242 140.337 399.518 140.532C398.794 140.727 398.283 141.35 398.404 141.802C398.551 142.345 399.281 142.536 400.005 142.341C400.729 142.147 401.264 141.614 401.118 141.071ZM266.324 172.314C264.73 169.638 264.525 169.597 263.359 171.754C262.103 173.936 263.15 175.303 265.683 174.621C267.131 174.231 267.305 173.796 266.324 172.314ZM336.818 154.501C336.696 154.048 335.663 153.453 334.431 153.203C332.444 152.671 332.378 152.785 333.836 154.236C335.367 155.959 337.256 156.129 336.818 154.501ZM285.422 166.493C285.172 165.203 284.598 164.872 283.404 165.484C282.458 165.933 281.661 165.857 281.581 165.199C281.244 162.864 280.565 161.786 279.807 162.572C278.512 163.891 280.475 166.855 283.168 167.489C284.514 167.805 285.656 168.08 285.68 168.171C285.795 168.237 285.576 167.422 285.422 166.493ZM262.329 170.091C262.461 169.861 262.152 169.071 261.571 168.354C260.802 167.3 260.416 167.307 259.574 168.504C258.798 169.586 258.46 169.774 258.241 168.96C257.827 167.422 254.981 165.86 253.443 166.274C252.719 166.468 251.602 166.284 250.798 165.821C248.846 164.697 249.605 166.434 251.703 168.1C253.063 169.189 253.45 169.182 253.272 168.163C253.077 167.439 253.725 168.041 254.657 169.343C255.614 170.734 256.908 171.938 257.548 172.154C258.624 172.544 261.578 171.263 262.329 170.091ZM270.85 167.506C271.174 166.545 266.018 165.411 265.489 166.33C265.05 167.224 268.084 169.124 269.441 168.758C270.075 168.588 270.701 168.031 270.85 167.506ZM294.455 160.763C295.252 160.84 295.697 160.332 295.454 159.427C295.235 158.613 295.788 157.785 296.602 157.565C297.869 157.224 297.91 157.019 296.672 156.382C295.433 155.746 295.162 155.819 295.043 156.821C294.918 157.437 294.34 158.174 293.617 158.369C292.893 158.564 292.399 158.891 292.448 159.072C292.496 159.253 292.51 160.025 292.615 160.773C292.604 161.455 292.677 161.727 292.761 161.316C292.844 160.906 293.658 160.686 294.455 160.763ZM335.089 148.078C334.967 147.625 334.236 147.434 333.512 147.629C332.155 147.994 331.995 149.201 333.258 149.929C334.177 150.458 335.405 149.254 335.089 148.078ZM289.295 158.174C289.222 157.903 288.516 157.802 287.792 157.997C286.978 158.216 286.654 159.176 286.947 160.262C287.385 161.89 287.59 161.932 288.425 160.349C288.954 159.43 289.368 158.446 289.295 158.174ZM302.51 155.005C302.726 154.364 301.814 154.222 300.457 154.587C299.1 154.952 298.384 155.533 298.892 155.979C299.309 156.449 300.221 156.591 300.945 156.396C301.668 156.202 302.385 155.62 302.51 155.005ZM315.628 151.473C315.506 151.021 315.023 150.666 314.48 150.812C314.027 150.934 313.652 150.259 313.704 149.372C313.742 147.712 313.742 147.712 313.161 149.518C312.604 151.414 313.519 153.011 315.057 152.597C315.51 152.475 315.774 152.016 315.628 151.473ZM261.132 164.203C261.129 162.749 260.645 162.394 259.288 162.759C257.841 163.149 257.448 162.77 257.437 160.929C257.403 158.998 257.149 158.775 255.708 159.551C254.786 160.091 254.414 160.87 254.807 161.249C255.315 161.695 255.148 162.516 254.636 163.139C253.878 163.925 253.86 164.221 254.765 163.977C255.308 163.831 256.021 164.318 256.24 165.132C256.435 165.856 256.985 166.096 257.364 165.703C257.834 165.286 258.244 165.369 258.366 165.821C258.829 167.54 261.192 166.225 261.132 164.203ZM275.704 160.669C272.583 160.248 270.249 158.062 273.231 158.327C275.029 158.522 277.611 155.498 276.011 154.959C275.371 154.743 274.88 154.002 275.047 153.181C275.124 152.384 274.682 151.824 274.139 151.97C273.596 152.116 273.266 152.69 273.387 153.143C273.533 153.685 273.179 154.169 272.636 154.315C272.093 154.461 271.717 153.786 271.811 152.694C271.898 151.215 271.439 150.95 270.106 151.406C268.683 151.886 268.533 152.412 269.334 153.943C270.249 155.54 270.141 155.86 268.662 155.773C267.183 155.686 267.117 155.801 268.307 156.257C270.367 157.06 271.411 159.496 269.782 159.934C266.978 160.689 269.25 161.921 273.088 161.761C278.766 161.591 279.466 161.305 275.704 160.669ZM287.496 155.457C287.563 155.342 287.211 154.757 286.679 154.221C286.056 153.71 285.402 152.722 285.207 151.998C284.647 149.917 282.337 150.345 282.897 152.426C283.189 153.512 283.86 154.204 284.313 154.082C284.856 153.936 285.339 154.291 285.461 154.743C285.826 156.1 282.135 156.803 281.703 155.561C281.46 154.656 281.279 154.705 281.226 155.592C281.126 156.299 281.762 157.582 282.573 158.431C284.08 160.063 284.17 160.039 285.631 157.899C286.473 156.702 287.34 155.596 287.496 155.457ZM247.479 165.745C247.006 164.708 246.195 163.859 245.604 163.824C244.922 163.813 244.845 164.61 245.506 165.985C246.78 168.553 248.686 168.427 247.479 165.745ZM312.183 149.49C312.062 149.038 311.306 148.756 310.583 148.951C309.859 149.145 309.348 149.768 309.469 150.221C309.615 150.763 310.346 150.955 311.07 150.76C311.794 150.565 312.329 150.033 312.183 149.49ZM239.775 167.042C239.991 166.402 240.938 165.953 242.006 165.957C243.279 166.002 243.773 165.675 243.53 164.77C243.14 163.323 238.185 163.298 236.233 164.697C234.306 166.186 235.409 168.121 237.615 166.945C239.146 166.145 239.261 166.211 238.394 167.317C237.75 168.17 237.757 168.556 238.391 168.385C238.933 168.239 239.626 167.568 239.775 167.042ZM293.603 152.551C294.494 151.535 294.174 151.428 292.347 152.21C291.014 152.666 289.779 153.484 289.515 153.943C288.787 155.206 292.333 153.961 293.603 152.551ZM232.625 167.512C232.43 166.788 231.627 166.325 230.903 166.52C228.551 167.153 229.762 168.768 232.785 168.827C232.9 168.893 232.82 168.236 232.625 167.512ZM267.002 158.257C266.808 157.533 266.275 156.998 265.823 157.119C265.371 157.241 264.998 158.021 264.831 158.842C264.779 159.729 265.197 160.199 266.011 159.98C266.734 159.785 267.197 158.981 267.002 158.257ZM264.316 155.488C264.048 154.492 263.22 153.939 262.406 154.158C261.501 154.402 261.286 155.042 261.752 155.693C262.357 156.5 262.044 156.778 260.705 156.848C258.774 156.883 257.702 155.425 259.33 154.986C259.873 154.84 260.04 154.019 259.73 153.229C259.463 152.234 259.142 152.126 259.066 152.923C259.031 153.515 258.495 154.047 258.06 153.873C257.535 153.723 257.135 152.958 257.302 152.137C257.396 151.044 256.756 150.828 255.037 151.291C253.77 151.632 252.563 151.472 252.417 150.929C252.271 150.386 251.408 150.425 250.329 151.103C249.028 152.036 248.617 151.952 248.777 150.745C248.829 149.857 248.429 149.092 247.723 148.991C246.836 148.939 246.829 148.553 247.629 147.561C248.363 146.684 247.772 146.649 245.378 147.488C242.375 148.587 242.055 148.479 242.044 146.639C242.125 144.774 242.01 144.708 241.248 146.562C240.089 149.106 239.341 149.21 238.683 146.767C238.172 144.868 238.172 144.868 237.368 146.928C236.846 148.232 236.933 149.276 237.598 149.582C239.254 150.689 239.25 151.757 237.458 151.948C236.505 152.011 235.837 152.773 235.875 153.636C235.987 154.77 236.856 155.118 238.829 154.878C241.369 154.582 241.592 154.328 240.677 152.731C239.738 151.044 239.96 150.79 243.2 150.209C247.5 149.245 247.41 149.269 246.912 150.665C246.745 151.486 246.268 151.517 245.506 150.849C244.72 150.09 244.449 150.164 244.644 150.887C244.814 151.521 244.344 151.938 243.548 151.862C242.66 151.809 242.396 152.269 242.688 153.354C243.453 155.477 244.692 156.113 250.103 157.471C254.372 158.553 254.758 158.546 255.43 156.716C256.383 154.13 256.999 154.256 258.14 157.053C258.784 158.723 259.497 159.21 260.625 158.713C261.39 158.313 262.211 158.48 262.382 159.113C262.576 159.837 262.938 159.739 263.714 158.657C264.268 157.829 264.56 156.392 264.316 155.488ZM231.098 164.721C230.343 164.439 229.295 163.072 228.791 161.558C228.213 159.773 227.542 159.081 226.891 159.547C226.331 159.989 225.666 159.683 225.447 158.869C225.228 158.055 224.605 157.543 224.062 157.689C223.429 157.86 223.492 158.813 224.038 160.121C224.65 161.315 224.737 162.359 224.375 162.456C223.923 162.578 223.732 163.309 223.927 164.032C224.121 164.756 224.744 165.267 225.287 165.121C225.739 165 225.823 164.589 225.405 164.119C225.012 163.74 225.162 163.215 225.795 163.044C226.428 162.874 227.733 163.396 228.634 164.22C229.535 165.045 230.75 165.591 231.383 165.421C232.197 165.202 232.149 165.021 231.098 164.721ZM233.979 163.17C233.488 162.428 232.998 161.687 232.949 161.506C232.9 161.325 232.128 161.339 231.338 161.649C230.343 161.917 230.235 162.237 231.032 162.314C231.623 162.348 232.385 163.016 232.58 163.74C232.775 164.464 233.373 164.885 233.916 164.739C234.459 164.593 234.469 163.911 233.979 163.17ZM239.306 157.369C238.52 156.611 237.765 156.329 237.73 156.921C237.601 158.605 239.386 160.55 240.211 159.648C240.656 159.14 240.346 158.351 239.306 157.369ZM279.918 148.571C279.626 147.485 277.5 146.796 277.037 147.6C276.575 148.404 278.238 149.896 279.323 149.604C279.776 149.482 280.04 149.023 279.918 148.571ZM269.188 148.355C269.042 147.812 269.626 147.461 270.513 147.513C271.696 147.582 271.919 147.328 271.199 146.455C270.733 145.804 270.743 145.122 271.286 144.976C271.829 144.83 271.797 144.353 271.289 143.908C270.642 143.306 270.28 143.403 270.047 144.339C269.856 145.07 269.115 145.561 268.474 145.345C267.719 145.063 267.726 145.449 268.356 146.347C269.149 147.492 268.927 147.746 267.291 147.798C265.837 147.801 265.252 148.153 265.496 149.058C265.691 149.781 266.651 150.105 267.646 149.837C268.641 149.569 269.334 148.898 269.188 148.355ZM259.991 148.793C259.344 148.191 259.772 147.979 261.317 147.951C262.862 147.923 263.2 147.735 262.281 147.206C261.592 146.81 260.458 146.921 259.807 147.387C258.349 148.459 258.474 150.366 260.012 149.952C260.465 149.83 260.524 149.329 259.991 148.793ZM225.023 155.49C225.172 154.965 224.508 154.659 223.422 154.951C222.337 155.243 221.916 155.842 222.309 156.221C222.726 156.691 223.457 156.882 223.909 156.76C224.362 156.638 224.898 156.106 225.023 155.49ZM234.233 150.779C235.054 150.946 235.005 150.765 233.923 149.989C233.071 149.346 231.683 149.234 230.761 149.774C228.826 150.877 228.809 151.172 230.785 152.387C231.982 153.229 232.253 153.156 232.594 151.9C232.852 151.054 233.593 150.563 234.233 150.779ZM257.438 143.271C256.505 141.97 252.156 142.752 252.546 144.2C252.667 144.652 252.058 144.913 251.081 144.885C249.988 144.791 249.741 144.955 250.413 145.647C250.921 146.093 252.079 146.072 252.911 145.557C253.742 145.042 254.786 144.955 255.179 145.334C256.449 146.448 258.485 144.638 257.438 143.271ZM473.478 85.4989C473.308 84.8656 472.142 84.5003 470.876 84.8412C469.585 85.0917 468.614 85.4501 468.663 85.631C468.76 85.9929 472.135 86.6367 473.565 86.5427C473.68 86.6088 473.624 86.0417 473.478 85.4989ZM224.724 148.973C224.529 148.249 225.218 146.124 226.39 144.353C228.001 141.687 228.036 141.096 226.77 141.437C225.865 141.68 224.811 142.449 224.414 143.138C223.951 143.942 222.466 143.469 219.498 141.454C216.874 139.638 215.159 139.032 214.967 139.763C214.71 140.608 214.167 140.755 213.273 140.316C212.494 139.944 211.721 139.958 211.523 140.302C211.324 140.647 210.653 139.954 209.95 138.785C209.223 137.525 208.19 136.93 207.194 137.198C206.38 137.418 204.769 137.56 203.677 137.466C202.584 137.372 204.428 138.816 207.758 140.734C211.022 142.766 213.875 144.714 214.021 145.257C214.167 145.8 213.576 145.765 212.723 145.121C211.756 144.411 210.597 144.432 209.181 145.299C207.246 146.402 207.18 146.516 209.045 146.596C210.138 146.69 212.372 147.059 213.924 147.418C217.504 148.103 218.614 147.901 217.862 146.551C217.601 145.942 217.528 145.671 217.831 146.075C218.2 146.363 219.178 146.391 220.173 146.123C221.077 145.88 221.989 146.023 222.135 146.565C222.257 147.018 221.763 147.345 221.171 147.31C220.374 147.233 220.002 148.013 220.367 149.37C220.74 151.113 221.223 151.468 222.942 151.005C224.299 150.64 224.967 149.878 224.724 148.973ZM232.907 146.576C234.898 146.04 234.908 145.358 232.981 144.325C231.029 143.201 227.869 144.44 226.613 146.621C225.134 149.057 225.534 149.822 227.559 148.695C228.482 148.156 229.64 148.135 230.148 148.58C230.795 149.182 231.067 149.109 231.119 148.222C231.129 147.54 231.912 146.844 232.907 146.576ZM208.454 151.607C209.543 150.246 209.553 149.564 208.513 148.583C207.751 147.915 206.512 147.278 205.715 147.202C204.532 147.132 204.581 147.313 206.008 148.287C207.459 149.352 207.417 149.557 205.246 150.142C203.075 150.726 203.033 150.932 204.466 152.292C206.408 154.098 206.589 154.049 208.454 151.607ZM223.642 138.107C223.464 137.087 220.625 138.434 220.103 139.739C219.887 140.379 220.559 141.071 221.544 141.485C223.054 142.049 223.416 141.952 223.617 140.539C223.76 139.627 223.739 138.469 223.642 138.107ZM206.763 143.524C206.349 141.986 204.644 140.699 203.976 141.461C203.53 141.969 203.252 141.655 203.37 140.653C203.531 139.446 203.047 139.091 201.78 139.432C200.604 139.749 199.801 139.286 199.484 138.11C199.216 137.115 198.545 136.422 198.002 136.568C197.459 136.715 197.041 136.245 197.118 135.448C197.212 134.355 196.53 134.345 193.823 135.462C191.05 136.694 190.368 136.683 190.027 135.417C189.588 133.788 188.134 133.792 187.619 135.483C187.469 136.008 186.613 136.432 185.636 136.405C184.748 136.352 185.552 136.815 187.473 137.462C191.109 138.715 191.944 139.655 190.354 140.956C189.794 141.398 190.336 141.252 191.53 140.639C192.814 140.003 194.22 139.818 194.752 140.354C195.26 140.799 196.746 141.273 198.043 141.408C199.341 141.544 200.629 142.362 200.823 143.085C201.043 143.9 201.526 144.255 201.815 143.886C202.128 143.607 203.057 143.454 203.927 143.802C205.594 144.227 206.933 144.157 206.763 143.524ZM179.473 143.788C178.412 141.648 175.517 142.427 176.307 144.64C177.17 147.125 180.312 148.704 180.228 146.592C180.215 145.82 179.898 144.644 179.473 143.788ZM222.622 135.762C222.772 135.236 222.107 134.93 221.112 135.198C220.027 135.49 219.334 136.162 219.456 136.614C219.602 137.157 220.242 137.373 220.966 137.178C221.69 136.983 222.497 136.378 222.622 135.762ZM228.259 133.274C228.137 132.822 227.473 132.515 226.749 132.71C226.025 132.905 225.242 133.601 225.093 134.126C224.968 134.742 225.608 134.958 226.603 134.69C227.688 134.398 228.405 133.817 228.259 133.274ZM203.311 136.109C204.397 135.817 205.493 134.843 205.545 133.955C205.622 133.159 206.158 132.626 206.774 132.752C207.389 132.877 208.287 132.247 208.816 131.329C209.742 129.721 209.536 129.679 207.191 130.699C205.792 131.269 204.272 131.388 203.879 131.008C202.633 129.985 201.373 130.713 202.282 131.923C202.772 132.665 202.508 133.124 201.422 133.416C200.197 133.552 199.849 134.422 200.295 136.436C200.618 137.999 200.879 138.607 201.004 137.992C201.105 137.285 202.135 136.426 203.311 136.109ZM186.986 140.698C186.345 140.483 185.444 139.658 184.839 138.851C184.233 138.043 183.478 137.762 183.009 138.179C181.805 139.473 182.727 141.457 184.658 141.422C187.386 141.464 188.266 141.13 186.986 140.698ZM173.047 141.54C173.057 140.858 172.622 140.684 171.815 141.29C171.074 141.78 170.636 142.674 170.757 143.127C171.074 144.303 172.96 143.019 173.047 141.54ZM168.04 139.88C167.254 139.122 166.871 138.06 167.135 137.601C167.376 137.051 166.923 137.173 166.092 137.688C165.284 138.294 164.181 138.882 163.639 139.028C163.005 139.198 163.127 139.651 164.046 140.179C164.783 140.757 165.25 141.408 165.027 141.662C164.919 141.982 165.806 142.034 167.097 141.784C169.046 141.453 169.153 141.133 168.04 139.88ZM181.279 134.279C180.74 133.357 179.978 132.688 179.526 132.81C178.621 133.054 179.244 136.088 180.302 136.773C181.68 137.567 182.219 135.966 181.279 134.279ZM195.58 130.817C195.264 129.641 194.543 128.767 194.001 128.914C193.548 129.035 193.489 129.536 193.882 129.916C194.3 130.385 194.307 130.772 193.764 130.918C192.407 131.283 190.852 129.47 191.906 128.701C193.479 127.696 192.661 126.46 190.9 127.128C189.658 127.56 189.533 128.176 190.218 129.641C191.043 131.262 190.845 131.607 189.456 131.495C188.454 131.377 188.061 130.998 188.597 130.465C189.199 129.818 188.823 129.143 187.487 128.144C185.667 126.791 185.577 126.815 186.607 128.478C187.612 130.051 187.522 130.076 185.956 128.945C183.858 127.278 183.044 127.497 183.604 129.578C183.847 130.483 183.712 131.78 183.315 132.469C182.786 133.388 183.179 133.767 184.658 133.854C185.726 133.858 186.993 133.517 187.463 133.099C187.842 132.706 189.181 132.636 190.257 133.026C191.446 133.482 193.221 133.586 194.24 133.409C195.712 133.11 196.043 132.536 195.58 130.817ZM177.65 133.412C177.727 132.615 177.268 132.351 176.617 132.817C176.032 133.169 175.504 134.087 175.493 134.769C175.417 135.566 175.876 135.83 176.527 135.364C177.111 135.013 177.64 134.094 177.65 133.412ZM163.089 136.265C162.967 135.813 162.483 135.458 162.031 135.58C161.579 135.701 160.42 135.722 159.623 135.646C158.416 135.486 158.218 135.83 158.962 136.794C160.01 138.161 163.479 137.712 163.089 136.265ZM153.019 134.901C153.165 135.444 154.126 135.767 155.121 135.499C157.292 134.915 157.219 134.643 154.599 131.759C152.143 129.121 150.483 129.083 151.189 131.707C151.457 132.702 151.314 133.613 150.772 133.76C150.319 133.881 150.309 134.563 150.89 135.28C151.659 136.334 151.84 136.286 152.205 135.12C152.595 134.045 152.776 133.996 153.019 134.901ZM177.755 126.592C178.58 125.691 178.531 125.51 177.324 125.35C175.73 125.197 174.881 126.008 175.246 127.365C175.49 128.269 176.485 128.002 177.755 126.592ZM149.425 130.92C149.77 131.119 149.992 130.865 149.846 130.322C149.578 129.327 147.852 129.403 143.625 130.638C142.111 131.143 142.087 131.052 143.347 130.325C144.088 129.835 144.519 128.554 144.251 127.559C143.886 126.202 143.361 126.052 142.463 126.682C141.318 127.475 141.203 127.409 141.882 125.965C142.428 124.751 142.331 124.389 141.607 124.584C139.979 125.022 140.831 123.144 142.766 122.041C144.206 121.265 144.411 121.306 143.799 122.636C143.253 123.85 143.416 124.097 144.411 123.829C145.045 123.659 145.459 122.674 145.257 121.564C145.006 120.273 144.523 119.918 143.806 120.499C143.155 120.965 142.292 121.004 141.875 120.534C141.391 120.179 140.709 120.169 140.354 120.652C139.975 121.045 139.965 121.727 140.358 122.107C141.095 122.684 140.601 123.011 138.562 123.366C138.11 123.488 137.759 122.903 137.72 122.04C137.7 120.882 137.199 120.823 135.939 121.55C134.926 122.113 133.792 122.225 133.399 121.846C132.473 120.93 130.055 121.678 130.347 122.764C130.494 123.307 131.224 123.498 132.038 123.279C132.762 123.084 134.199 123.377 135.118 123.905C136.151 124.5 136.478 124.995 135.845 125.165C135.302 125.311 136.325 126.588 138.145 127.942C139.874 129.32 140.897 130.597 140.354 130.743C139.811 130.889 139.456 131.372 139.603 131.915C139.944 133.182 145.918 133.029 147.393 131.661C148.086 130.99 148.99 130.746 149.425 130.92ZM173.667 122.939C173.447 122.125 173.729 121.37 174.411 121.38C175.159 121.276 175.424 120.816 175.072 120.232C174.631 119.672 173.35 119.24 172.035 119.4C170.834 119.626 169.397 119.334 168.865 118.798C168.357 118.353 168.42 119.306 168.924 120.82C169.453 122.424 170.18 123.683 170.633 123.562C170.994 123.464 171.248 123.687 171.37 124.139C171.488 125.66 172.063 125.99 173.117 125.221C173.677 124.78 173.976 123.729 173.667 122.939ZM165.622 122.97C168.194 120.628 167.814 118.499 164.919 119.278C163.743 119.595 162.306 119.303 161.816 118.561C161.21 117.754 160.323 117.702 159.244 118.381C158.256 119.035 157.484 119.049 157.313 118.415C157.167 117.872 157.95 117.177 159.151 116.95C162.39 116.369 163.041 115.903 161.35 115.388C157.418 114.118 154.088 117.246 155.184 121.317C155.647 123.036 156.475 123.589 158.134 123.628C159.474 123.558 160.869 124.056 161.36 124.797C161.826 125.447 162.491 125.754 162.804 125.475C163.207 125.172 164.37 124.083 165.622 122.97ZM180.73 118.903C180.608 118.451 179.672 118.217 178.677 118.485C177.682 118.753 176.99 119.425 177.111 119.877C177.258 120.42 178.169 120.563 179.164 120.295C180.159 120.027 180.876 119.446 180.73 118.903ZM190.326 114.185C189.293 113.59 189.07 113.844 189.533 115.563C189.996 117.282 190.316 117.389 190.911 116.356C191.506 115.323 191.36 114.78 190.326 114.185ZM148.729 125.092C148.698 124.616 147.919 124.243 147.056 124.281C146.012 124.368 145.5 124.991 145.744 125.896C146.158 127.434 148.896 126.794 148.729 125.092ZM154.008 124.156C153.886 123.704 153.312 123.373 152.86 123.495C152.317 123.641 152.212 122.893 152.578 121.728C153.027 120.151 152.832 119.428 151.405 118.453C149.839 117.323 149.773 117.437 149.979 120.002C150.006 121.547 150.789 123.373 151.485 124.156C153.033 125.583 154.397 125.604 154.008 124.156ZM147.773 118.655C146.715 117.97 146.569 117.427 147.171 116.78C148.688 115.207 146.802 113.968 143.907 114.748L141.103 115.503L143.834 116.999C145.417 117.834 146.753 118.833 146.875 119.285C147.021 119.828 147.571 120.068 148.114 119.922C148.837 119.727 148.74 119.365 147.773 118.655ZM174.088 112.25C173.535 110.556 171.517 109.546 170.692 110.448C169.933 111.234 170.146 111.662 171.68 112.316C174.036 113.137 174.331 113.155 174.088 112.25ZM158.629 113.21C160.981 112.577 160.668 110.333 158.027 108.812C156.649 108.019 155.696 108.081 154.057 109.202C151.677 110.813 151.085 113.3 153.256 112.716C154.071 112.497 154.801 112.688 154.947 113.231C155.069 113.683 154.485 114.035 153.688 113.958C152.867 113.791 152.306 114.233 152.477 114.866C152.672 115.59 153.444 115.576 154.704 114.849C155.716 114.285 157.453 113.527 158.629 113.21ZM133.535 118.025C135.254 117.562 134.822 116.32 132.369 115.137C130.786 114.302 130.128 114.382 129.533 115.415C128.938 116.449 128.618 116.341 128.204 114.803C127.888 113.627 127.126 112.959 126.311 113.178C125.226 113.47 125.215 114.152 126.179 115.93C127.307 117.955 127.24 118.07 125.796 117.392C124.377 116.804 124.015 116.901 123.904 118.289C123.716 120.474 124.495 120.847 126.266 119.497C128.169 117.917 131.649 116.786 131.892 117.691C131.99 118.053 131.635 118.537 131.092 118.683C130.64 118.804 130.581 119.305 131.113 119.841C131.875 120.509 132.146 120.436 132.199 119.549C132.209 118.867 132.811 118.22 133.535 118.025ZM137.766 115.722C136.009 115.322 134.516 111.94 135.964 111.55C136.416 111.428 136.739 110.468 136.743 109.4C136.746 108.331 136.256 107.59 135.713 107.736C135.17 107.883 134.916 107.66 135.205 107.291C135.379 106.856 136.284 106.613 137.195 106.755C138.493 106.891 138.705 107.319 138.305 109.076C137.881 110.743 138.166 111.442 139.822 112.549C140.88 113.234 141.955 113.624 142.153 113.279C142.352 112.935 141.517 111.995 140.229 111.178C138.229 109.873 138.18 109.692 139.774 109.845C140.866 109.939 141.336 109.521 141.117 108.707C140.922 107.984 141.204 107.229 141.656 107.107C142.199 106.961 142.341 106.049 142.049 104.963C141.781 103.968 141.273 103.523 140.804 103.94C140.424 104.334 139.923 104.274 139.753 103.641C139.582 103.008 138.629 103.071 137.321 103.617C136.127 104.229 134.812 104.389 134.419 104.01C133.935 103.655 132.71 103.791 131.607 104.379C130.191 105.245 129.485 105.144 129.241 104.239C129.047 103.516 129.304 102.67 129.889 102.319C130.449 101.877 130.139 101.087 128.615 99.7509C127.345 98.6375 126.733 97.444 127.203 97.0265C127.961 96.2401 126.354 92.792 125.407 93.2408C123.466 93.9575 122.686 93.5852 122.742 91.6297C122.697 90.3806 122.857 89.1732 123.146 88.8044C123.434 88.4356 123.278 86.0522 122.867 83.4461L122.053 78.62L120.467 81.3757C118.682 84.4759 118.671 85.1579 120.571 84.6464C121.385 84.4272 121.803 84.897 121.75 85.7842C121.615 87.0821 121.023 87.0473 118.793 85.6102C115.644 83.6442 114.485 81.1425 116.785 81.3965C119.085 81.6506 118.121 79.8726 114.858 77.8405C112.652 76.4939 112.036 76.3686 112.353 77.5447C112.572 78.3589 113.195 78.8704 113.647 78.7486C114.733 78.4564 115.067 79.3367 114.378 81.4626C113.946 82.743 113.469 82.7743 111.197 81.5426C109.729 80.7736 108.038 80.2586 107.405 80.4291C106.771 80.5995 106.403 80.3107 106.618 79.6705C106.768 79.1451 105.662 78.2787 104.176 77.8055C102.05 77.1165 101.469 76.3997 101.41 74.3782C101.431 73.0142 101.782 71.0762 102.196 70.0915C103.271 67.9586 102.875 66.1249 101.518 66.4902C100.975 66.6364 100.874 67.3427 101.34 67.9934C102.993 70.1681 101.02 70.4081 97.8713 68.4421C94.5589 66.2292 92.7844 66.1247 93.3201 68.115C93.4906 68.7482 94.6145 69.3189 95.888 69.3642C97.6381 69.3781 97.8921 69.6008 96.9109 70.6411C95.5087 72.2799 94.2421 72.6209 94.6493 71.25C94.7989 70.7246 94.4962 70.321 93.9534 70.4671C93.3201 70.6376 93.2192 71.3439 93.7759 71.9702C94.2421 72.6209 93.9672 73.7621 93.2992 74.5241C92.0709 75.728 92.1196 75.9089 93.9741 76.671C94.9588 77.085 96.0235 78.1568 96.2427 78.9709C96.4619 79.7851 96.9942 80.321 97.3561 80.2236C97.7179 80.1262 98.299 80.8429 98.5425 81.7476C98.8104 82.7427 98.5947 83.3829 98.1841 83.2994C97.1333 83.0002 97.2551 83.4525 98.4903 85.1575C99.2836 86.3022 99.555 86.2292 100.39 84.646C101.34 83.129 101.611 83.0559 103.515 83.9989C104.639 84.5696 105.912 84.6148 106.448 84.0825C106.959 83.4597 107.279 83.5675 107.227 84.4548C107.241 85.2272 106.055 86.2258 104.837 86.7477C103.528 87.294 102.54 87.9481 102.638 88.3099C102.881 89.2146 108.581 92.7255 109.395 92.5063C109.847 92.3845 111.051 93.6128 112.147 95.1612C113.734 97.4507 114.001 98.4458 113.455 99.6601C113.017 100.554 113.062 101.803 113.528 102.454C113.994 103.105 114.033 103.968 113.448 104.319C112.797 104.785 113.378 105.502 114.986 106.428C117.717 107.924 119.986 107.701 120.501 106.01C120.884 104.549 125.633 104.532 127.477 105.976C129.575 107.642 129.68 108.39 127.689 108.926C126.785 109.17 125.87 110.095 125.817 110.983C125.723 112.075 126.002 112.388 126.719 111.807C127.369 111.341 130.003 112.475 132.947 114.4C135.685 116.282 138.319 117.416 138.764 116.908C139.144 116.515 138.792 115.931 137.766 115.722ZM162.508 105.277C162.387 104.825 161.597 105.134 160.863 106.011C160.038 106.912 159.714 107.873 160.083 108.161C160.779 108.944 162.825 106.453 162.508 105.277ZM149.422 109.285C149.516 108.192 149.172 107.994 148.135 108.467C147.369 108.867 146.726 109.72 146.625 110.426C146.52 112.201 149.252 111.174 149.422 109.285ZM124.064 114.559C125.584 111.918 124.161 109.876 121.357 110.631C118.371 111.435 117.856 113.126 119.961 115.179C121.625 116.671 122.94 116.511 124.064 114.559ZM145.309 108.064C145.459 107.538 144.794 107.232 143.709 107.524C142.623 107.817 142.202 108.415 142.595 108.794C143.013 109.264 143.744 109.455 144.196 109.334C144.648 109.212 145.184 108.68 145.309 108.064ZM166.475 98.3877C166.329 97.8449 165.713 97.7196 165.062 98.1859C164.412 98.6521 163.5 98.5094 163.034 97.8588C162.568 97.2081 161.788 96.8358 161.246 96.9819C159.979 97.3229 160.727 99.7411 162.321 99.8942C164.554 100.263 166.743 99.3828 166.475 98.3877ZM111.667 108.874C112.815 107.012 112.495 106.904 110.543 108.303C109.802 108.794 109.339 109.597 109.461 110.05C109.777 111.226 110.543 110.826 111.667 108.874ZM158.385 97.1697C158.312 96.8983 157.592 96.025 156.872 95.1516C154.743 93.0082 153.598 93.8015 155.48 96.1084C157.011 97.8308 158.751 98.5267 158.385 97.1697ZM137.655 99.4519C138.257 98.8047 138.358 98.0983 137.898 97.8339C137.439 97.5695 136.541 98.1992 135.946 99.2326C134.756 101.299 135.783 101.508 137.655 99.4519ZM133.594 97.3432C132.94 96.3551 131.99 95.3495 131.465 95.1998C130.825 94.9841 130.703 94.5318 131.239 93.9994C132.509 92.5903 130.992 91.6403 129.238 92.6946C128.045 93.3069 127.992 94.1942 128.921 96.5637C129.802 98.7523 130.473 99.4448 131.28 98.8393C131.931 98.3731 132.571 98.5888 132.79 99.403C132.985 100.127 133.535 100.367 133.914 99.9737C134.36 99.4657 134.248 98.3314 133.594 97.3432ZM95.3863 102.099C95.2089 101.079 94.7183 100.338 94.1755 100.484C93.2708 100.728 93.65 102.857 94.7982 103.519C95.8316 104.114 95.856 104.204 95.3863 102.099ZM133.327 88.7803C132.203 85.687 127.38 82.9103 128.184 85.8957C128.403 86.7099 129.026 87.2214 129.478 87.0996C130.021 86.9535 130.602 87.6703 130.87 88.6654C131.138 89.6605 131.719 90.3773 132.262 90.2312C132.714 90.1094 132.975 90.7183 132.947 91.696C132.829 92.6981 133.107 93.0113 133.553 92.5033C133.998 91.9953 133.946 90.36 133.327 88.7803ZM99.0328 100.147C98.911 99.6946 98.156 99.4128 97.4322 99.6076C96.7085 99.8025 96.197 100.425 96.3188 100.878C96.4649 101.42 97.1956 101.612 97.9193 101.417C98.6431 101.222 99.1789 100.69 99.0328 100.147ZM110.797 95.9127C110.07 94.6531 109.659 94.5696 109.336 95.5299C108.953 96.9913 109.77 98.2265 111.037 97.8856C111.399 97.7882 111.361 96.9252 110.797 95.9127ZM104.363 93.2786C102.69 92.4679 102.551 92.3113 103.939 92.4227C105.098 92.4018 105.32 92.1478 104.691 91.2501C103.782 90.0392 99.4088 90.7316 99.7741 92.0886C100.139 93.4456 103.487 95.0671 105.115 94.6287C106.291 94.3121 106.218 94.0407 104.363 93.2786ZM94.7114 94.9068C94.3704 93.6403 94.099 93.7134 93.257 94.9103C92.7037 95.7384 92.241 96.5421 92.2897 96.723C92.3384 96.904 93.0203 96.9144 93.7441 96.7196C94.4678 96.5248 94.9306 95.721 94.7114 94.9068ZM86.5139 88.9638C85.317 88.1217 84.4959 87.9547 84.3949 88.661C84.3601 89.2525 85.0317 89.9449 85.7867 90.2268C88.3232 90.9993 88.6538 90.4252 86.5139 88.9638ZM77.6065 89.0332C77.5578 88.8522 77.61 87.965 77.6622 87.0777C77.9163 84.7778 76.3609 85.4876 75.5885 88.0241C75.0978 89.8056 75.1709 90.077 76.3469 89.7604C77.0707 89.5655 77.6552 89.2141 77.6065 89.0332ZM93.6888 78.4942C92.7563 77.1929 92.6658 77.2172 91.9038 79.0718C91.1661 81.0168 91.0756 81.0411 89.7326 79.6563C88.5287 78.428 88.4383 78.4523 88.7131 79.8337C88.9323 80.6479 90.2023 81.7614 91.4827 82.1928C93.633 82.9723 93.9044 82.8992 94.2872 81.4378C94.5447 80.5923 94.2698 79.211 93.6888 78.4942ZM89.7084 74.5206C89.9241 73.8804 90.5086 73.5289 91.034 73.6786C91.5838 73.9187 91.8969 73.6403 91.7508 73.0975C91.629 72.6452 90.7766 72.0015 89.7502 71.7927C88.2644 71.3195 88.2401 71.229 89.8789 70.1086C90.801 69.5693 91.3299 68.6508 90.9367 68.2715C90.4531 67.9166 89.5971 68.3411 88.7481 69.1518C87.5442 70.4461 87.0014 70.5922 85.8288 69.8406C84.6563 69.0891 84.5832 68.8177 85.3905 68.2123C85.8602 67.7947 86.2082 66.9249 86.0133 66.2011C85.7941 65.3869 85.3349 65.1225 84.9799 65.6061C84.6007 65.9993 83.9187 65.9889 83.4107 65.5435C82.1407 64.43 79.6807 65.3834 80.6132 66.6847C81.0551 67.2449 81.1421 68.2887 80.7454 68.9776C79.8859 70.4703 81.5073 72.1683 82.6451 70.9888C83.1566 70.366 83.4106 70.5887 83.2923 71.5908C83.2401 72.478 84.1725 73.7794 85.4599 74.5971C88.0103 76.142 89.2595 76.0968 89.7084 74.5206ZM77.6243 71.0792C77.2102 69.5412 75.4844 69.6178 75.3069 71.1209C75.2547 72.0081 75.6723 72.4779 76.4865 72.2587C77.2102 72.0638 77.746 71.5315 77.6243 71.0792ZM76.4796 66.8272C76.0899 65.3798 73.4178 63.3825 72.7253 64.054C72.3704 64.5377 72.36 65.2197 72.8436 65.5746C73.2368 65.9539 73.2437 66.3401 72.767 66.3714C71.0656 66.5383 70.3732 67.2099 71.5388 67.5752C73.0245 68.0485 76.6501 67.4605 76.4796 66.8272ZM72.8646 59.1654C71.8173 57.798 70.2063 57.9406 70.5716 59.2976C70.7178 59.8404 70.1819 60.3727 69.4582 60.5676C68.7345 60.7624 67.9794 60.4806 67.8089 59.8473C67.6628 59.3045 67.3184 59.1062 67.1444 59.5411C66.351 60.9189 68.5257 61.7888 71.0587 61.1069C73.049 60.5711 73.4944 60.0631 72.8646 59.1654ZM53.9468 59.8923C53.7694 58.8728 53.2788 58.1316 52.736 58.2778C52.2836 58.3995 52.141 59.3111 52.4089 60.3063C52.6768 61.3014 53.2578 62.0182 53.6197 61.9208C53.9815 61.8233 54.1242 60.9117 53.9468 59.8923ZM74.1451 54.5517C73.9016 53.647 73.0909 52.798 72.2941 52.7215C70.7005 52.5683 69.9663 53.4451 70.356 54.8926C70.5021 55.4354 70.9057 55.1327 71.1632 54.2872C71.5947 53.0067 71.8 53.0485 72.2627 54.7674C72.555 55.853 73.2509 56.6359 73.7032 56.5141C74.246 56.368 74.3887 55.4563 74.1451 54.5517ZM66.6156 52.8918C65.5822 52.2968 64.4897 52.2029 64.2252 52.6621C63.8947 53.2362 64.3122 53.706 64.9942 53.7164C65.61 53.8417 66.372 54.5098 66.5912 55.324C66.8835 56.4096 67.1792 56.427 67.7742 55.3936C68.4597 54.3358 68.1083 53.7513 66.6156 52.8918ZM61.3547 51.0094C61.0277 50.5153 60.4779 50.2752 60.1161 50.3726C59.7785 50.5605 58.7834 50.8284 57.9936 51.138C56.6366 51.5033 56.6853 51.6843 58.3937 51.9035C61.219 52.3072 62.0332 52.088 61.3547 51.0094ZM52.7501 46.4372C51.7167 45.8422 51.1739 45.9883 50.5789 47.0217C49.9839 48.0551 50.2379 48.2777 51.9568 47.815C53.6756 47.3523 53.7835 47.0322 52.7501 46.4372ZM53.0565 38.2048C53.2131 38.0656 52.2179 38.3335 50.9514 38.6745C48.6897 39.2833 48.3174 40.0627 49.8101 40.9222C50.1789 41.211 51.0105 40.696 51.6786 39.934C52.3223 39.0816 52.8999 38.344 53.0565 38.2048ZM39.7826 24.2171C39.3686 22.6792 37.1627 21.3326 36.6338 22.2512C36.3937 22.8009 36.7207 23.295 37.4027 23.3054C38.0186 23.4307 38.5265 23.8761 38.2865 24.4258C38.1368 24.9512 38.5056 25.24 38.958 25.1183C39.5008 24.9721 39.88 24.579 39.7826 24.2171Z" fill="black"/>
<path d="M155.365 111.178C154.252 109.925 154.203 109.744 155.386 109.814C157.07 109.943 158.928 112.159 157.661 112.5C157.209 112.622 156.176 112.027 155.365 111.178Z" fill="black"/>
<path d="M116.04 105.659C115.943 105.297 116.472 104.378 117.115 103.526C118.048 102.305 118.083 101.713 117.001 100.937C115.828 100.186 116.117 99.8167 118.33 99.0269C121.695 97.8301 124.809 97.8649 124.492 99.2115C124.252 99.7612 124.892 99.977 125.797 99.7334C127.154 99.3681 127.293 99.5247 126.312 100.565C125.487 101.466 124.69 101.39 123.215 100.234C121.74 99.0792 120.967 99.0931 119.962 100.043C119.179 100.739 118.65 101.657 118.813 101.904C119.318 103.418 118.629 105.544 117.453 105.861C116.729 106.055 116.113 105.93 116.04 105.659Z" fill="black"/>
<path d="M114.631 94.2983C113.253 93.505 113.121 91.212 114.367 89.7124C115.745 87.9831 114.419 86.3025 112.158 86.9114C110.981 87.228 110.94 87.4333 112.015 87.823C113.066 88.1222 112.982 88.5328 111.451 89.3331C110.282 90.0359 108.852 90.1298 107.819 89.5348C106.326 88.6753 106.368 88.47 107.725 88.1047C108.629 87.8612 108.984 87.3776 108.567 86.9078C108.174 86.5285 108.685 85.9057 109.68 85.6378C111.218 85.2238 111.483 84.7645 110.623 83.7346C109.806 82.4994 109.986 82.4507 111.757 83.6233C113.02 84.3505 114.43 85.6205 115.035 86.4278C115.526 87.1689 116.444 87.6978 116.987 87.5517C117.439 87.4299 118.038 87.8509 118.233 88.5747C118.427 89.2984 119.28 89.9421 120.167 89.9943C120.964 90.0709 121.496 90.6067 121.371 91.2226C120.922 92.7988 119.402 92.917 118.963 91.2887C118.695 90.2935 118.08 90.1683 116.778 91.1007C114.102 92.6943 113.953 93.2197 115.734 93.7103C116.604 94.0583 116.882 94.3714 116.34 94.5175C115.797 94.6637 115 94.5871 114.631 94.2983Z" fill="black"/>
<path d="M203.728 161.805C201.669 161.001 200.353 158.639 202.25 159.195C202.866 159.321 203.179 159.042 203.008 158.409C202.789 157.595 203.151 157.497 204.39 158.134C205.259 158.482 206.328 158.486 206.707 158.092C207.062 157.609 207.744 157.619 208.252 158.065C208.645 158.444 208.224 159.042 207.138 159.335C206.053 159.627 205.607 160.135 206.049 160.695C206.557 161.14 207.42 161.102 208.071 160.636C208.721 160.17 209.313 160.205 209.435 160.657C209.776 161.923 205.927 162.765 203.728 161.805Z" fill="black"/>
<path d="M232.017 127.411C230.844 126.66 230.173 125.967 230.535 125.87C230.897 125.772 232.201 126.294 233.555 126.997C234.908 127.7 235.58 128.392 235.037 128.539C234.585 128.66 233.19 128.163 232.017 127.411Z" fill="black"/>
<path d="M218.308 123.34C217.268 122.359 219.348 121.798 221.474 122.487C222.755 122.919 222.713 123.124 221.085 123.563C219.999 123.855 218.726 123.81 218.308 123.34Z" fill="black"/>
<path d="M200.361 116.141C200.264 115.779 200.587 114.818 201.05 114.015C201.687 112.776 202.164 112.745 203.541 113.538C205.058 114.488 204.992 114.603 203.604 114.491C202.783 114.324 201.68 114.912 201.283 115.601C200.887 116.29 200.483 116.593 200.361 116.141Z" fill="black"/>
<path d="M174.693 102.967C173.792 102.142 173.27 100.924 173.462 100.194C173.653 99.463 174.366 99.9501 175.257 101.457C176.948 104.494 176.774 104.929 174.693 102.967Z" fill="black"/>
<path d="M95.1854 53.0594C92.5132 51.0621 91.4346 49.218 93.2405 49.7991C93.8563 49.9244 94.4374 50.6412 94.6322 51.3649C94.8271 52.0886 95.7943 52.7984 96.7547 53.122C97.7811 53.3308 98.4039 53.8423 98.2299 54.2773C97.9411 54.6461 96.6363 54.1241 95.1854 53.0594Z" fill="black"/>
<path d="M73.3035 35.5677C72.6981 34.7605 72.2249 33.7236 72.2179 33.3374C72.1205 32.9755 71.4316 32.5789 70.6348 32.5023C69.8136 32.3353 68.9855 31.782 68.8151 31.1487C68.6446 30.5155 67.4164 29.1967 65.9655 28.132C64.0309 26.7123 63.7943 26.1939 64.7894 25.926C65.5132 25.7312 66.9154 26.615 67.9383 27.892C68.8708 29.1933 71.0906 31.3123 72.7051 32.6241C74.3195 33.9359 75.7774 35.3869 75.8748 35.7487C76.2401 37.1057 74.4412 36.9108 73.3035 35.5677Z" fill="black"/>
</svg>
