<svg width="120" height="240" viewBox="0 0 120 240" fill="none" xmlns="http://www.w3.org/2000/svg">
<path d="M102 231.24L91.92 230.16C82.8 229.32 75 223.2 72 214.44C65.6288 190.863 65.6288 166.017 72 142.44C99.84 136.8 120 112.44 120 84C120 60 96 0 96 0H24C24 0 1.25074e-06 60 1.25074e-06 84C-0.00282181 97.8318 4.7734 111.24 13.5203 121.955C22.2673 132.67 34.4476 140.034 48 142.8C54.36 166.32 54.36 191.28 48 214.8C45.12 223.44 37.44 229.56 28.44 230.52L18 231.6C18 231.6 12 231.36 12 240H108C108 231.36 102 231.24 102 231.24ZM29.28 60L41.28 24H78.72L90.72 60H29.28Z" fill="#3A9A5B"/>
</svg>
