<svg width="516" height="419" viewBox="0 0 516 419" fill="none" xmlns="http://www.w3.org/2000/svg">
<path fill-rule="evenodd" clip-rule="evenodd" d="M474 0H0V419H474V382.997C497.242 382.729 516 363.805 516 340.5C516 317.195 497.242 298.271 474 298.003V251.997C497.242 251.729 516 232.805 516 209.5C516 186.195 497.242 167.271 474 167.003V120.997C497.242 120.729 516 101.805 516 78.5C516 55.1948 497.242 36.2708 474 36.0029V0ZM474 106C488.912 106 501 93.9117 501 79C501 64.0883 488.912 52 474 52C459.088 52 447 64.0883 447 79C447 93.9117 459.088 106 474 106ZM447 210C447 224.912 459.088 237 474 237C488.912 237 501 224.912 501 210C501 195.088 488.912 183 474 183C459.088 183 447 195.088 447 210ZM447 341C447 355.912 459.088 368 474 368C488.912 368 501 355.912 501 341C501 326.088 488.912 314 474 314C459.088 314 447 326.088 447 341Z" fill="white"/>
</svg>
